<svg width="87" height="25" viewBox="0 0 87 25" fill="none" xmlns="http://www.w3.org/2000/svg">
<path d="M43.4804 5.20096C44.1467 5.20096 44.6868 4.66082 44.6868 3.99452C44.6868 3.32823 44.1467 2.78809 43.4804 2.78809C42.8141 2.78809 42.2739 3.32823 42.2739 3.99452C42.2739 4.66082 42.8141 5.20096 43.4804 5.20096Z" fill="white"/>
<path d="M37.6819 7.46638C37.6819 7.67416 37.6752 7.87523 37.6618 8.0629C37.6484 8.25057 37.6283 8.43153 37.6082 8.6125H40.517V6.79614H42.4272V14.9798H40.517V13.2104H37.2127V11.6018H40.517V10.2077H37.2328C36.9916 10.8645 36.6765 11.461 36.2811 11.9905C35.8857 12.52 35.4232 13.0026 34.9071 13.4248C34.3843 13.8471 33.8146 14.2157 33.2047 14.5173C32.5881 14.8256 31.9446 15.0803 31.2811 15.2747L30.4031 13.7398C31.1537 13.5187 31.824 13.2506 32.4205 12.9289C33.017 12.6071 33.5264 12.2385 33.9554 11.8364C34.3843 11.4275 34.7261 10.9919 34.9808 10.5227C35.2355 10.0535 35.4031 9.57094 35.4902 9.06826H31.1068V7.47309H37.6953L37.6819 7.46638ZM42.206 18.2305C42.206 18.7398 42.1055 19.209 41.9111 19.6246C41.7101 20.0401 41.442 20.3953 41.1001 20.6902C40.7583 20.9852 40.3428 21.2063 39.8669 21.3605C39.3843 21.5146 38.8682 21.5951 38.2985 21.5951C37.7288 21.5951 37.1993 21.5146 36.7235 21.3605C36.2476 21.2063 35.8387 20.9785 35.4969 20.6902C35.1551 20.3953 34.887 20.0401 34.6926 19.6246C34.4983 19.209 34.4044 18.7398 34.4044 18.2305C34.4044 17.7211 34.4983 17.2921 34.6926 16.8766C34.887 16.4677 35.1551 16.1058 35.4969 15.8042C35.8387 15.5026 36.2476 15.268 36.7235 15.1004C37.1993 14.9329 37.7221 14.8524 38.2985 14.8524C38.8749 14.8524 39.3843 14.9329 39.8669 15.1004C40.3495 15.268 40.7583 15.5026 41.1001 15.8042C41.442 16.1058 41.7168 16.461 41.9111 16.8766C42.1122 17.2921 42.206 17.7412 42.206 18.2305ZM40.3092 18.2305C40.3092 17.701 40.1216 17.272 39.7395 16.9503C39.3575 16.6286 38.8749 16.4677 38.2918 16.4677C37.7087 16.4677 37.2127 16.6286 36.8441 16.9503C36.4755 17.272 36.2878 17.701 36.2878 18.2305C36.2878 18.76 36.4755 19.1889 36.8441 19.5106C37.2127 19.8323 37.6953 19.9932 38.2918 19.9932C38.8883 19.9932 39.3575 19.8323 39.7395 19.5106C40.1216 19.1889 40.3092 18.76 40.3092 18.2305Z" fill="white"/>
<path d="M44.9087 11.6289C44.9087 11.0256 45.0092 10.476 45.2036 9.98676C45.4047 9.49748 45.6728 9.07523 46.028 8.72671C46.3832 8.37818 46.7921 8.10338 47.2746 7.91571C47.7572 7.72134 48.2733 7.62751 48.843 7.62751C49.4127 7.62751 49.9489 7.72134 50.4315 7.91571C50.9141 8.11008 51.3363 8.37818 51.6848 8.72671C52.0334 9.07523 52.3082 9.49748 52.4958 9.98676C52.6902 10.476 52.784 11.0256 52.784 11.6289C52.784 12.2321 52.6902 12.7683 52.4958 13.2575C52.3015 13.7468 52.0334 14.1691 51.6848 14.5176C51.3363 14.8661 50.9208 15.1409 50.4315 15.3286C49.9489 15.523 49.4194 15.6168 48.843 15.6168C48.2666 15.6168 47.7572 15.523 47.2746 15.3286C46.7921 15.1342 46.3832 14.8661 46.028 14.5176C45.6795 14.1691 45.4047 13.7468 45.2036 13.2575C45.0025 12.7683 44.9087 12.2254 44.9087 11.6289ZM46.8189 11.6154C46.8189 12.3326 47.0066 12.8956 47.3886 13.3045C47.7706 13.7133 48.2532 13.9144 48.8363 13.9144C49.4194 13.9144 49.9154 13.7133 50.2907 13.3045C50.6661 12.8956 50.8537 12.3326 50.8537 11.6154C50.8537 10.8983 50.6661 10.3487 50.2907 9.93314C49.9154 9.52429 49.4328 9.31652 48.8363 9.31652C48.2398 9.31652 47.7706 9.52429 47.3886 9.93314C47.0066 10.3487 46.8189 10.905 46.8189 11.6154ZM54.7679 6.80981H56.6647V19.7187H54.7679V6.80981Z" fill="white"/>
<path d="M66.4599 14.9933V16.7963H72.0162V18.3915H58.9666V16.7963H64.5363V14.9933H61.0644V10.3284H68.0282V8.82711H61.0644V7.23193H69.9719V11.8767H62.9947V13.3646H70.2534V14.9933H66.4666H66.4599Z" fill="white"/>
<path d="M75.5088 21.5349V16.4008H78.9337V15.3217H73.364V13.693H86.4136V15.3217H80.8573V16.4008H84.2822V21.5349H75.5021H75.5088ZM83.9739 10C83.9739 10.5429 83.86 11.0121 83.6187 11.4142C83.3841 11.8164 83.0758 12.1515 82.6938 12.4263C82.3117 12.6944 81.8761 12.9021 81.3868 13.0362C80.8975 13.1702 80.3948 13.2373 79.8855 13.2373C79.3761 13.2373 78.86 13.1702 78.3774 13.0362C77.8948 12.9021 77.4592 12.7011 77.0704 12.433C76.6817 12.1649 76.3734 11.8298 76.1455 11.4209C75.9176 11.0121 75.8037 10.5362 75.8037 10C75.8037 9.49062 75.9109 9.02815 76.1321 8.62601C76.3533 8.21716 76.6482 7.87534 77.0168 7.59384C77.3855 7.31233 77.8211 7.09786 78.3171 6.9437C78.8131 6.78955 79.3359 6.71582 79.8922 6.71582C80.4485 6.71582 80.9847 6.78955 81.4873 6.9437C81.99 7.09786 82.419 7.31234 82.7876 7.60054C83.1495 7.88874 83.4444 8.23727 83.6589 8.63941C83.8734 9.04826 83.9806 9.49732 83.9806 10H83.9739ZM82.3654 17.9625H77.4391V19.933H82.3654V17.9625ZM82.1174 10C82.1174 9.49732 81.9096 9.09518 81.494 8.78016C81.0785 8.46515 80.5423 8.31099 79.8989 8.31099C79.5637 8.31099 79.2621 8.35121 78.994 8.43834C78.7259 8.51877 78.4914 8.63941 78.297 8.79357C78.1026 8.94772 77.9552 9.12199 77.8412 9.32306C77.734 9.52413 77.6737 9.75201 77.6737 10.0067C77.6737 10.496 77.8747 10.8981 78.2836 11.2131C78.6924 11.5282 79.2286 11.6823 79.8922 11.6823C80.5557 11.6823 81.0718 11.5282 81.4873 11.2131C81.9029 10.8981 82.1107 10.496 82.1107 10.0067L82.1174 10Z" fill="white"/>
<path d="M21.5617 1.46113C21.689 1.82976 21.756 2.2252 21.756 2.63405V12.5134H20.744V2.64075C20.744 1.32038 19.7721 0.22118 18.5054 0.0268097C18.3713 0.0134048 18.2306 0 18.0965 0H12.4196C5.563 0.0469169 0 5.63673 0 12.5C0 19.3633 5.60992 25 12.5 25C19.3901 25 24.9866 19.4035 25 12.5268V5.12064C25 3.17694 23.4786 1.58177 21.5684 1.46783L21.5617 1.46113ZM11.1394 18.8137H5.49598C5.29491 18.8137 5.10724 18.693 5.02681 18.5054C4.94638 18.3177 4.9866 18.1032 5.12735 17.9558L9.93298 13.0027H6.3807L7.36595 11.9906H11.126C11.3271 11.9906 11.5147 12.1113 11.5952 12.2989C11.6756 12.4866 11.6354 12.7011 11.4946 12.8485L6.68901 17.8016H11.1327C11.4142 17.8016 11.6421 18.0295 11.6421 18.311C11.6421 18.5925 11.4142 18.8204 11.1327 18.8204L11.1394 18.8137ZM15.496 19.3231C13.7064 19.3231 12.252 17.8686 12.252 16.0791C12.252 14.2895 13.7064 12.8351 15.496 12.8351C17.2855 12.8351 18.7399 14.2895 18.7399 16.0791C18.7399 17.8686 17.2855 19.3231 15.496 19.3231ZM15.496 12.1582C13.7064 12.1582 12.252 10.7038 12.252 8.91421C12.252 7.12467 13.7064 5.67024 15.496 5.67024C17.2855 5.67024 18.7399 7.12467 18.7399 8.91421C18.7399 10.7038 17.2855 12.1582 15.496 12.1582ZM22.7078 12.5134H22.3727V4.79893H22.7078V12.5134ZM23.5523 12.5134H23.2172V4.79893H23.5523V12.5134ZM24.3968 12.5134H24.0617V4.79893H24.3968V12.5134Z" fill="white"/>
<path d="M15.4991 13.9275C14.3128 13.9275 13.3477 14.8926 13.3477 16.079C13.3477 17.2653 14.3128 18.2304 15.4991 18.2304C16.6855 18.2304 17.6506 17.2653 17.6506 16.079C17.6506 14.8926 16.6855 13.9275 15.4991 13.9275Z" fill="white"/>
<path d="M15.4991 6.7627C14.3128 6.7627 13.3477 7.72784 13.3477 8.91417C13.3477 10.1005 14.3128 11.0656 15.4991 11.0656C16.6855 11.0656 17.6506 10.1005 17.6506 8.91417C17.6506 7.72784 16.6855 6.7627 15.4991 6.7627Z" fill="white"/>
<path d="M5.48106 13.0028C5.35372 13.0028 5.22637 12.9559 5.12584 12.8553C4.92476 12.661 4.92476 12.3393 5.11913 12.1382L9.91806 7.22531H5.48106C5.19956 7.22531 4.97168 6.99743 4.97168 6.71593C4.97168 6.43443 5.19956 6.20654 5.48106 6.20654H11.1245C11.3256 6.20654 11.5132 6.32719 11.5937 6.51485C11.6741 6.70252 11.6339 6.917 11.4864 7.06445L5.84299 12.8419C5.74246 12.9425 5.61511 12.9961 5.48106 12.9961V13.0028Z" fill="#00A7E1"/>
</svg>
