<svg width="650" height="731" viewBox="0 0 650 731" fill="none" xmlns="http://www.w3.org/2000/svg">
<path style="mix-blend-mode:screen" opacity="0.14" d="M95.0425 485.415C-31.6809 541.437 -31.6809 632.27 95.0425 688.292C221.77 744.313 427.231 744.313 553.958 688.292C680.686 632.266 680.686 541.437 553.958 485.415C427.226 429.394 221.766 429.394 95.0383 485.415H95.0425Z" fill="url(#paint0_linear_412_699)"/>
<path style="mix-blend-mode:screen" opacity="0.14" d="M95.0415 485.415C221.769 429.394 427.23 429.394 553.961 485.415C680.685 541.437 680.685 632.27 553.961 688.292C427.234 744.313 221.773 744.313 95.0457 688.292C-31.6777 632.27 -31.6777 541.437 95.0457 485.415H95.0415ZM97.449 687.227C222.851 742.659 426.156 742.659 551.554 687.227C676.951 631.79 676.951 541.912 551.554 486.476C426.156 431.04 222.851 431.04 97.449 486.476C-27.9444 541.908 -27.9444 631.79 97.449 687.222V687.227Z" fill="url(#paint1_linear_412_699)"/>
<path style="mix-blend-mode:screen" opacity="0.14" d="M169.529 518.342C83.9393 556.176 83.9393 617.526 169.529 655.365C255.122 693.203 393.887 693.203 479.481 655.365C565.074 617.526 565.074 556.176 479.481 518.342C393.887 480.508 255.118 480.508 169.529 518.342V518.342Z" fill="url(#paint2_linear_412_699)"/>
<path style="mix-blend-mode:screen" opacity="0.14" d="M169.532 518.342C255.125 480.508 393.89 480.508 479.484 518.342C565.073 556.176 565.073 617.526 479.484 655.365C393.89 693.199 255.125 693.199 169.532 655.365C83.9425 617.526 83.9425 556.181 169.532 518.342V518.342ZM171.156 654.645C255.853 692.084 393.166 692.084 477.859 654.645C562.552 617.206 562.552 556.5 477.859 519.058C393.166 481.619 255.853 481.619 171.156 519.058C86.4637 556.496 86.4637 617.202 171.156 654.641V654.645Z" fill="url(#paint3_linear_412_699)"/>
<g style="mix-blend-mode:multiply" opacity="0.4">
<path d="M626.152 530.46L446.434 426.7C440.326 423.173 430.36 423.173 424.29 426.7L157.257 581.885C151.188 585.412 151.221 591.182 157.328 594.71L337.047 698.469C343.158 701.996 353.125 701.996 359.194 698.469L626.228 543.284C632.297 539.757 632.263 533.987 626.152 530.455V530.46Z" fill="#367ED6"/>
</g>
<path d="M630.745 494.166C630.85 491.754 629.318 489.321 626.149 487.49L446.431 383.731C440.323 380.204 430.357 380.204 424.287 383.731L157.254 538.916C154.228 540.675 152.721 542.99 152.725 545.305C152.725 545.296 152.725 545.288 152.725 545.284C152.717 548.373 152.708 551.462 152.7 554.552C152.691 556.892 154.228 559.236 157.304 561.008L337.023 664.768C343.134 668.295 353.101 668.295 359.17 664.768L626.204 509.583C629.217 507.832 630.728 505.526 630.733 503.215C630.741 500.126 630.749 497.036 630.758 493.947C630.758 494.019 630.754 494.09 630.749 494.162L630.745 494.166Z" fill="url(#paint4_linear_412_699)"/>
<g style="mix-blend-mode:multiply" opacity="0.8">
<path d="M626.229 500.319L359.196 655.504C353.126 659.031 343.159 659.031 337.048 655.504L157.33 551.744C154.257 549.968 152.721 547.628 152.725 545.288C152.717 548.377 152.708 551.467 152.7 554.556C152.691 556.896 154.228 559.241 157.304 561.013L337.023 664.772C343.134 668.299 353.101 668.299 359.17 664.772L626.204 509.587C629.217 507.837 630.728 505.53 630.733 503.219C630.741 500.13 630.749 497.041 630.758 493.951C630.749 496.262 629.243 498.568 626.229 500.319V500.319Z" fill="#367ED6"/>
</g>
<g style="mix-blend-mode:multiply" opacity="0.3">
<path d="M626.228 500.319L359.194 655.504C353.125 659.031 343.158 659.031 337.047 655.504L157.328 551.744C151.221 548.217 151.188 542.447 157.257 538.92L424.29 383.735C430.36 380.208 440.326 380.208 446.434 383.735L626.152 487.495C632.263 491.022 632.297 496.796 626.228 500.324V500.319ZM628.61 492.592C628.61 490.975 627.322 489.304 625.079 488.012L445.36 384.253C442.763 382.755 439.114 381.896 435.347 381.896C431.58 381.896 427.944 382.755 425.368 384.249L158.334 539.433C156.133 540.713 154.87 542.363 154.87 543.962C154.87 545.578 156.158 547.245 158.398 548.541L338.116 652.301C340.713 653.799 344.362 654.658 348.133 654.658C351.905 654.658 355.537 653.799 358.109 652.305L625.142 497.121C627.343 495.841 628.606 494.191 628.602 492.592H628.61Z" fill="#367ED6"/>
</g>
<path d="M607.403 501.902C608.514 502.542 608.518 503.594 607.415 504.234L370.123 642.132C369.02 642.772 367.21 642.772 366.099 642.132L183.068 536.458C181.957 535.818 181.948 534.77 183.051 534.126L420.344 396.223C421.447 395.584 423.261 395.584 424.368 396.223L607.398 501.898L607.403 501.902Z" fill="#A0D1F9"/>
<path d="M420.812 389.241L185.497 525.102V534.387L367.291 639.35L602.605 503.485V494.204L420.812 389.241Z" fill="white"/>
<path d="M241.438 292.376C336.414 305.154 420.728 389.241 420.728 389.241L185.497 525.102C185.497 525.102 101.187 441.015 6.20798 428.237L241.434 292.376H241.438Z" fill="white"/>
<g style="mix-blend-mode:multiply" opacity="0.3">
<path d="M241.438 292.376C336.414 305.154 420.728 389.241 420.728 389.241L185.497 525.102C185.497 525.102 101.187 441.015 6.20798 428.237L241.434 292.376H241.438Z" fill="#367ED6"/>
</g>
<path d="M241.438 281.289C336.414 294.068 420.728 389.245 420.728 389.245L185.497 525.106C185.497 525.106 101.187 429.929 6.20798 417.15L241.434 281.289H241.438Z" fill="white"/>
<g style="mix-blend-mode:multiply" opacity="0.2">
<path d="M241.438 281.289C336.414 294.068 420.728 389.245 420.728 389.245L185.497 525.106C185.497 525.106 101.187 429.929 6.20798 417.15L241.434 281.289H241.438Z" fill="#367ED6"/>
</g>
<path d="M367.291 630.065L185.497 525.102L420.812 389.241L602.605 494.204L367.291 630.065Z" fill="white"/>
<g style="mix-blend-mode:multiply" opacity="0.2">
<path d="M367.291 630.065L185.497 525.102V534.387L367.291 639.35L602.605 503.485V494.204L367.291 630.065Z" fill="#367ED6"/>
</g>
<g style="mix-blend-mode:multiply" opacity="0.2">
<path d="M185.496 525.102V534.387L367.29 639.35V630.065L185.496 525.102Z" fill="#367ED6"/>
</g>
<path d="M241.438 271.314C336.414 284.092 420.728 389.241 420.728 389.241L185.497 525.102C185.497 525.102 101.187 419.954 6.20798 407.175L241.434 271.314H241.438Z" fill="white"/>
<g style="mix-blend-mode:multiply" opacity="0.4">
<path d="M367.291 631.197L185.497 526.234V526.945L367.291 631.904L602.605 496.043V495.336L367.291 631.197Z" fill="#367ED6"/>
</g>
<g style="mix-blend-mode:multiply" opacity="0.4">
<path d="M367.291 632.826L185.497 527.863V528.574L367.291 633.537L602.605 497.672V496.965L367.291 632.826Z" fill="#367ED6"/>
</g>
<g style="mix-blend-mode:multiply" opacity="0.4">
<path d="M367.291 634.455L185.497 529.496V530.203L367.291 635.166L602.605 499.305V498.594L367.291 634.455Z" fill="#367ED6"/>
</g>
<g style="mix-blend-mode:multiply" opacity="0.4">
<path d="M367.291 636.084L185.497 531.125V531.832L367.291 636.795L602.605 500.934V500.223L367.291 636.084Z" fill="#367ED6"/>
</g>
<g style="mix-blend-mode:multiply" opacity="0.4">
<path d="M367.291 637.717L185.497 532.754V533.461L367.291 638.424L602.605 502.563V501.852L367.291 637.717Z" fill="#367ED6"/>
</g>
<g style="mix-blend-mode:multiply" opacity="0.3">
<path d="M61.4536 408.067L57.493 410.353C53.0357 408.673 48.5237 407.15 43.9654 405.807L48.1617 403.387C52.56 404.759 56.9879 406.316 61.4494 408.067H61.4536Z" fill="#367ED6"/>
<path d="M57.8776 397.473C97.5597 409.048 133.778 434.592 158.804 455.763C168.805 464.223 177.736 472.574 185.312 480.079C190.696 485.415 195.393 490.319 199.303 494.545L202.43 492.739C198.541 488.526 193.861 483.61 188.477 478.256C180.708 470.528 171.49 461.883 161.132 453.124C141.914 436.857 122.578 423.354 103.663 412.988C89.55 405.252 75.6478 399.254 62.0865 395.049L57.8776 397.478V397.473Z" fill="#367ED6"/>
<path d="M65.0099 393.357C104.692 404.932 140.91 430.476 165.937 451.651C175.937 460.111 184.869 468.462 192.445 475.966C197.824 481.299 202.521 486.207 206.435 490.428L209.562 488.627C205.673 484.418 200.989 479.502 195.606 474.144C187.836 466.416 178.618 457.771 168.264 449.008C149.046 432.744 129.71 419.238 110.799 408.871C96.6866 401.135 82.7801 395.142 69.2231 390.937L65.0183 393.361L65.0099 393.357Z" fill="#367ED6"/>
<path d="M72.1428 389.241C111.825 400.815 148.043 426.359 173.069 447.531C183.07 455.991 192.001 464.341 199.577 471.85C204.961 477.178 209.658 482.086 213.568 486.312L216.695 484.506C212.806 480.293 208.122 475.381 202.738 470.023C194.969 462.296 185.751 453.655 175.397 444.892C156.179 428.624 136.843 415.117 117.928 404.755C103.815 397.019 89.9088 391.021 76.3475 386.816L72.1386 389.245L72.1428 389.241Z" fill="#367ED6"/>
<path d="M79.272 385.12C118.954 396.699 155.172 422.243 180.199 443.414C190.199 451.874 199.131 460.221 206.707 467.729C212.09 473.062 216.783 477.965 220.693 482.191L223.82 480.39C219.931 476.177 215.251 471.261 209.868 465.907C202.098 458.179 192.88 449.534 182.522 440.771C163.3 424.507 143.968 411.001 125.057 400.634C110.94 392.898 97.038 386.905 83.4767 382.7L79.272 385.124V385.12Z" fill="#367ED6"/>
<path d="M86.392 381.008C126.078 392.578 162.296 418.122 187.323 439.298C197.328 447.758 206.259 456.108 213.835 463.617L216.996 461.79C209.226 454.063 200.009 445.422 189.655 436.659C170.432 420.391 151.096 406.885 132.19 396.522C118.073 388.786 104.171 382.788 90.6094 378.583L86.4004 381.012L86.392 381.008Z" fill="#367ED6"/>
<path d="M157.547 407.529C171.445 416.612 183.941 426.279 194.464 435.181C204.464 443.641 213.396 451.992 220.972 459.497C226.351 464.829 231.044 469.737 234.958 473.959L238.085 472.153C234.201 467.94 229.516 463.032 224.137 457.678C216.367 449.951 207.154 441.305 196.796 432.542C184.674 422.285 172.506 413.131 160.426 405.159L157.551 407.533L157.547 407.529Z" fill="#367ED6"/>
<path d="M100.653 372.771C140.339 384.341 176.562 409.886 201.588 431.061C211.589 439.521 220.52 447.871 228.1 455.38C233.48 460.713 238.172 465.616 242.087 469.838L245.218 468.032C241.329 463.823 236.645 458.912 231.266 453.554C223.496 445.826 214.278 437.185 203.924 428.422C184.702 412.158 165.366 398.652 146.451 388.285C132.338 380.549 118.432 374.551 104.87 370.342L100.662 372.775L100.653 372.771Z" fill="#367ED6"/>
<path d="M107.787 368.655C147.473 380.229 183.691 405.773 208.722 426.949C218.722 435.413 227.658 443.759 235.23 451.264C240.609 456.597 245.306 461.5 249.216 465.722L252.343 463.916C248.454 459.703 243.774 454.795 238.395 449.441C230.625 441.714 221.407 433.073 211.053 424.305C191.831 408.042 172.495 394.536 153.58 384.169C139.463 376.433 125.557 370.435 111.995 366.23L107.791 368.659L107.787 368.655Z" fill="#367ED6"/>
<path d="M114.911 364.534C154.598 376.109 190.82 401.653 215.851 422.828C225.851 431.288 234.783 439.639 242.359 447.148C247.738 452.476 252.431 457.38 256.345 461.601L259.468 459.8C255.583 455.587 250.899 450.675 245.52 445.325C237.754 437.597 228.537 428.948 218.183 420.189C198.96 403.926 179.624 390.415 160.709 380.048C146.592 372.308 132.686 366.31 119.125 362.105L114.916 364.534H114.911Z" fill="#367ED6"/>
<path d="M122.043 360.418C161.734 371.988 197.956 397.536 222.987 418.712C232.987 427.172 241.923 435.522 249.495 443.027L252.651 441.204C244.882 433.477 235.668 424.836 225.31 416.069C206.092 399.805 186.756 386.303 167.841 375.932C153.724 368.196 139.813 362.198 126.252 357.993L122.043 360.422V360.418Z" fill="#367ED6"/>
<path d="M171.259 373.869C194.046 386.109 214.312 401.219 230.113 414.591C240.113 423.055 249.049 431.406 256.621 438.911C262 444.239 266.693 449.143 270.603 453.364L273.726 451.563C269.841 447.35 265.161 442.442 259.782 437.088C252.012 429.356 242.799 420.711 232.44 411.952C213.222 395.689 193.886 382.178 174.971 371.815C174.782 371.714 174.597 371.609 174.407 371.512L171.259 373.874V373.869Z" fill="#367ED6"/>
<path d="M136.302 352.181C175.988 363.755 212.215 389.304 237.241 410.479C247.246 418.939 256.178 427.29 263.754 434.794C269.129 440.123 273.821 445.022 277.732 449.248L280.859 447.446C276.974 443.233 272.294 438.325 266.915 432.972C259.145 425.244 249.931 416.603 239.573 407.836C220.355 391.572 201.019 378.066 182.108 367.699C167.987 359.963 154.077 353.965 140.511 349.76L136.311 352.185L136.302 352.181Z" fill="#367ED6"/>
<path d="M143.429 348.064C183.12 359.635 219.342 385.183 244.373 406.358C254.378 414.818 263.309 423.173 270.885 430.678L274.042 428.855C266.272 421.128 257.059 412.482 246.701 403.719C227.482 387.452 208.146 373.945 189.231 363.579C175.11 355.838 161.2 349.84 147.634 345.636L143.429 348.064Z" fill="#367ED6"/>
<path d="M175.687 353.208C205.356 366.344 231.872 385.638 251.499 402.246C261.503 410.706 270.435 419.057 278.011 426.566C283.386 431.89 288.079 436.793 291.985 441.015L295.116 439.209C291.227 435 286.551 430.089 281.176 424.739C273.406 417.011 264.189 408.366 253.831 399.603C234.608 383.335 215.272 369.833 196.366 359.462C190.334 356.154 184.341 353.166 178.393 350.505L175.691 353.208H175.687Z" fill="#367ED6"/>
<path d="M157.688 339.832C197.379 351.402 233.601 376.951 258.636 398.13C268.64 406.59 277.572 414.936 285.148 422.445C290.523 427.774 295.212 432.673 299.122 436.895L302.249 435.093C298.364 430.884 293.68 425.972 288.313 420.623C280.543 412.899 271.322 404.254 260.968 395.487C241.745 379.223 222.409 365.713 203.494 355.35C189.373 347.61 175.462 341.612 161.893 337.407L157.692 339.836L157.688 339.832Z" fill="#367ED6"/>
<path d="M164.823 335.711C204.509 347.281 240.74 372.834 265.77 394.009C275.775 402.474 284.707 410.82 292.283 418.329L295.439 416.506C287.67 408.774 278.456 400.133 268.098 391.366C248.876 375.103 229.54 361.596 210.625 351.229C196.504 343.489 182.593 337.487 169.023 333.282L164.823 335.711V335.711Z" fill="#367ED6"/>
<path d="M234.988 361.592C249.286 370.864 262.127 380.785 272.898 389.893C282.902 398.353 291.834 406.704 299.41 414.208C304.785 419.537 309.474 424.432 313.384 428.653L316.507 426.852C312.618 422.643 307.942 417.731 302.567 412.386C294.797 404.662 285.584 396.017 275.225 387.25C262.864 376.79 250.456 367.472 238.144 359.403L234.988 361.592V361.592Z" fill="#367ED6"/>
<path d="M179.074 327.478C218.764 339.049 254.995 364.601 280.03 385.777C290.035 394.241 298.966 402.587 306.542 410.096C311.913 415.425 316.606 420.32 320.512 424.541L323.639 422.736C319.754 418.531 315.078 413.619 309.703 408.274C301.934 400.546 292.716 391.901 282.362 383.133C263.14 366.87 243.804 353.363 224.889 342.997C210.767 335.257 196.853 329.255 183.283 325.05L179.078 327.478H179.074Z" fill="#367ED6"/>
<path d="M186.207 323.358C225.897 334.928 262.128 360.481 287.163 381.66C297.163 390.124 306.099 398.471 313.675 405.975C319.046 411.3 323.73 416.203 327.645 420.421L330.772 418.619C326.887 414.414 322.207 409.503 316.832 404.157C309.062 396.43 299.845 387.784 289.49 379.017C270.272 362.754 250.936 349.247 232.021 338.88C217.896 331.136 203.981 325.138 190.412 320.933L186.207 323.362V323.358Z" fill="#367ED6"/>
<path d="M193.328 319.246C233.022 330.812 269.253 356.364 294.288 377.544C304.288 386.008 313.224 394.354 320.8 401.863C326.171 407.188 330.86 412.091 334.77 416.304L337.897 414.503C334.012 410.294 329.336 405.39 323.961 400.041C316.191 392.309 306.974 383.668 296.615 374.901C277.397 358.637 258.061 345.131 239.146 334.768C225.021 327.024 211.106 321.026 197.537 316.817L193.328 319.25V319.246Z" fill="#367ED6"/>
<path d="M200.459 315.125C240.153 326.691 276.384 352.244 301.419 373.428C311.424 381.888 320.355 390.238 327.931 397.747L331.088 395.924C323.318 388.197 314.101 379.552 303.746 370.784C284.528 354.521 265.192 341.014 246.277 330.648C232.152 322.903 218.233 316.905 204.663 312.701L200.459 315.129V315.125Z" fill="#367ED6"/>
<path d="M235.999 321.746C264.351 334.819 289.646 353.309 308.553 369.303C318.558 377.763 327.489 386.109 335.065 393.622C340.436 398.946 345.125 403.846 349.035 408.063L352.162 406.257C348.277 402.048 343.597 397.145 338.226 391.8C330.457 384.072 321.239 375.431 310.885 366.664C291.667 350.396 272.331 336.889 253.42 326.527C248.899 324.048 244.396 321.746 239.922 319.629L236.007 321.75L235.999 321.746Z" fill="#367ED6"/>
<path d="M214.718 306.892C254.413 318.458 290.644 344.011 315.679 365.195C325.683 373.655 334.615 382.005 342.191 389.514C347.557 394.834 352.25 399.729 356.156 403.951L359.288 402.149C355.403 397.941 350.727 393.037 345.352 387.692C337.582 379.964 328.364 371.319 318.01 362.552C298.788 346.288 279.456 332.782 260.541 322.415C246.412 314.675 232.497 308.673 218.923 304.468L214.718 306.896V306.892Z" fill="#367ED6"/>
<path d="M221.846 302.772C261.541 314.338 297.776 339.895 322.811 361.074C332.816 369.538 341.751 377.889 349.327 385.394C354.698 390.718 359.378 395.613 363.288 399.83L366.42 398.025C362.535 393.82 357.859 388.912 352.484 383.567C344.714 375.839 335.497 367.198 325.143 358.431C305.92 342.163 286.584 328.657 267.678 318.294C253.548 310.55 239.633 304.548 226.059 300.343L221.851 302.772H221.846Z" fill="#367ED6"/>
<path d="M228.976 298.651C268.67 310.222 304.905 335.778 329.94 356.954C339.941 365.414 348.876 373.768 356.452 381.273C361.823 386.597 366.508 391.497 370.418 395.71L373.545 393.904C369.664 389.695 364.984 384.792 359.613 379.451C351.844 371.723 342.63 363.078 332.272 354.31C313.05 338.047 293.714 324.54 274.798 314.174C260.673 306.434 246.754 300.432 233.18 296.227L228.976 298.651V298.651Z" fill="#367ED6"/>
<path d="M236.104 294.539C275.803 306.105 312.034 331.662 337.073 352.842C347.073 361.306 356.009 369.656 363.585 377.161C368.956 382.485 373.64 387.384 377.55 391.602L380.678 389.796C376.793 385.591 372.117 380.68 366.746 375.343C358.976 367.615 349.763 358.97 339.405 350.207C320.182 333.939 300.846 320.432 281.936 310.066C267.81 302.321 253.891 296.319 240.317 292.115L236.108 294.543L236.104 294.539Z" fill="#367ED6"/>
</g>
<g style="mix-blend-mode:multiply" opacity="0.3">
<path d="M410.086 418.017L537.184 491.405L552.757 500.395L556.28 498.362L540.703 489.372L413.601 415.984L410.086 418.017Z" fill="#367ED6"/>
<path d="M402.949 422.134L530.051 495.521L545.629 504.512L549.147 502.483L533.57 493.484L406.472 420.105L402.949 422.134Z" fill="#367ED6"/>
<path d="M395.824 426.254L522.922 499.638L538.504 508.632L542.022 506.595L526.445 497.605L399.343 424.217L395.824 426.254Z" fill="#367ED6"/>
<path d="M436.476 457.96L515.794 503.754L531.367 512.744L534.89 510.716L519.309 501.725L439.995 455.927L436.476 457.96Z" fill="#367ED6"/>
<path d="M381.564 434.487L508.662 507.874L512.185 505.837L385.082 432.454L381.564 434.487Z" fill="#367ED6"/>
<path d="M374.43 438.608L501.528 511.987L517.106 520.981L520.625 518.952L505.051 509.958L377.949 436.575L374.43 438.608Z" fill="#367ED6"/>
<path d="M367.301 442.724L494.403 516.107L509.981 525.098L513.5 523.065L497.922 514.074L370.824 440.687L367.301 442.724Z" fill="#367ED6"/>
<path d="M360.172 446.84L487.274 520.224L502.847 529.214L506.375 527.181L490.797 518.187L363.691 444.807L360.172 446.84Z" fill="#367ED6"/>
<path d="M353.036 450.957L480.134 524.34L495.711 533.335L499.234 531.302L483.657 522.307L356.555 448.924L353.036 450.957Z" fill="#367ED6"/>
<path d="M345.911 455.073L473.009 528.456L488.586 537.451L492.109 535.414L476.532 526.423L349.434 453.04L345.911 455.073Z" fill="#367ED6"/>
<path d="M338.778 459.189L465.881 532.573L481.454 541.563L484.977 539.534L469.399 530.54L342.297 457.156L338.778 459.189Z" fill="#367ED6"/>
<path d="M369.371 485.087L458.744 536.689L474.321 545.684L477.844 543.651L462.267 534.656L372.89 483.058L369.371 485.087Z" fill="#367ED6"/>
<path d="M324.518 467.426L451.616 540.805L455.139 538.777L328.036 465.389L324.518 467.426Z" fill="#367ED6"/>
<path d="M317.38 471.538L444.483 544.926L460.06 553.916L463.579 551.883L448.001 542.889L320.903 469.51L317.38 471.538Z" fill="#367ED6"/>
<path d="M310.255 475.659L437.362 549.038L452.931 558.033L456.454 556.004L440.876 547.009L313.778 473.626L310.255 475.659Z" fill="#367ED6"/>
<path d="M303.123 479.776L430.221 553.159L445.798 562.153L449.321 560.116L433.744 551.126L306.642 477.743L303.123 479.776Z" fill="#367ED6"/>
<path d="M295.994 483.892L423.092 557.279L438.67 566.27L442.188 564.237L426.615 555.242L299.513 481.859L295.994 483.892Z" fill="#367ED6"/>
<path d="M288.862 488.008L415.96 561.391L431.537 570.386L435.056 568.353L419.483 559.359L292.38 485.975L288.862 488.008Z" fill="#367ED6"/>
<path d="M333.71 522.143L408.827 565.512L424.4 574.507L427.923 572.47L412.346 563.479L337.233 520.11L333.71 522.143Z" fill="#367ED6"/>
<path d="M274.604 496.245L401.702 569.629L405.225 567.596L278.123 494.208L274.604 496.245Z" fill="#367ED6"/>
<path d="M267.467 500.362L394.569 573.741L410.147 582.735L413.666 580.707L398.088 571.712L270.99 498.329L267.467 500.362Z" fill="#367ED6"/>
<path d="M345.036 553.382L387.437 577.861L403.01 586.856L406.533 584.823L390.956 575.828L348.559 551.349L345.036 553.382Z" fill="#367ED6"/>
<path d="M253.214 508.594L380.316 581.977L383.835 579.949L256.733 506.561L253.214 508.594Z" fill="#367ED6"/>
<path d="M246.081 512.711L373.179 586.094L388.757 595.088L392.275 593.055L376.702 584.061L249.6 510.682L246.081 512.711Z" fill="#367ED6"/>
<path d="M238.944 516.831L366.051 590.21L381.624 599.205L385.143 597.172L369.565 588.182L242.467 514.794L238.944 516.831Z" fill="#367ED6"/>
<path d="M231.819 520.943L358.922 594.331L374.495 603.321L378.018 601.288L362.444 592.294L235.342 518.915L231.819 520.943Z" fill="#367ED6"/>
<path d="M351.256 606.373L361.951 612.551L365.474 610.519L354.774 604.344L351.256 606.373Z" fill="#367ED6"/>
</g>
<path d="M241.431 271.318C336.406 284.097 420.72 389.245 420.72 389.245L185.494 525.106C185.494 525.106 101.18 419.958 6.20479 407.179L241.431 271.318V271.318Z" fill="#367ED6"/>
<path style="mix-blend-mode:screen" opacity="0.14" d="M600.212 0L602.594 498.594L365.466 625.591L185.478 525.102C185.478 525.102 92.1188 439.782 6.19708 428.237V0H600.212Z" fill="url(#paint5_linear_412_699)"/>
<path style="mix-blend-mode:color-dodge" opacity="0.5" d="M57.8636 37.7544C60.0648 37.7544 61.8452 39.5348 61.8452 41.7361V181.213H53.8819V41.7361C53.8819 39.5348 55.6665 37.7544 57.8636 37.7544V37.7544Z" fill="url(#paint6_linear_412_699)"/>
<path style="mix-blend-mode:color-dodge" opacity="0.5" d="M542.002 348.106C543.037 348.106 543.879 348.944 543.879 349.984V415.698H540.124V349.984C540.124 348.948 540.966 348.106 542.002 348.106V348.106Z" fill="url(#paint7_linear_412_699)"/>
<path style="mix-blend-mode:color-dodge" opacity="0.7" d="M570.615 28.886C572.016 28.886 573.161 30.0225 573.161 31.4325V179.117H568.064V31.4283C568.064 30.0225 569.205 28.8818 570.615 28.8818V28.886Z" fill="url(#paint8_linear_412_699)"/>
<path style="mix-blend-mode:color-dodge" opacity="0.7" d="M253.193 42.5232C254.46 42.5232 255.508 43.5544 255.508 44.8297V304.182H250.886V44.8297C250.886 43.5544 251.918 42.5232 253.193 42.5232V42.5232Z" fill="url(#paint9_linear_412_699)"/>
<path style="mix-blend-mode:color-dodge" opacity="0.7" d="M114.893 238.097C115.587 238.097 116.155 238.656 116.155 239.351V380.477H113.643V239.351C113.643 238.656 114.202 238.097 114.893 238.097Z" fill="url(#paint10_linear_412_699)"/>
<path style="mix-blend-mode:color-dodge" opacity="0.7" d="M375.666 45.6504C376.402 45.6504 376.996 46.2439 376.996 46.9804V196.824H374.336V46.9804C374.336 46.2439 374.929 45.6504 375.666 45.6504V45.6504Z" fill="url(#paint11_linear_412_699)"/>
<g style="mix-blend-mode:color-dodge" opacity="0.3">
<path d="M500.038 267.997C492.845 277.472 503.531 288.184 513.035 280.99C520.296 271.47 509.521 260.724 500.038 267.997Z" fill="#1ED3FB"/>
</g>
<g style="mix-blend-mode:color-dodge" opacity="0.3">
<path d="M500.876 274.475C500.876 277.611 503.414 280.153 506.554 280.153C509.694 280.153 512.224 277.611 512.224 274.475C512.224 271.339 509.681 268.793 506.554 268.793C503.427 268.793 500.876 271.339 500.876 274.475Z" fill="#1ED3FB"/>
</g>
<g style="mix-blend-mode:color-dodge">
<path d="M503.763 277.207C506.848 279.648 510.337 277.463 510.337 274.475C510.337 272.387 508.637 270.691 506.558 270.691C503.595 270.691 501.402 274.117 503.763 277.207V277.207Z" fill="#1ED3FB"/>
</g>
<g style="mix-blend-mode:color-dodge" opacity="0.3">
<path d="M530.931 164.486C530.931 169.381 534.904 173.355 539.812 173.355C544.719 173.355 548.676 169.385 548.676 164.486C548.676 159.587 544.703 155.614 539.812 155.614C534.921 155.614 530.931 159.587 530.931 164.486Z" fill="#1ED3FB"/>
</g>
<g style="mix-blend-mode:color-dodge" opacity="0.3">
<path d="M534.123 164.486C534.123 167.618 536.665 170.164 539.809 170.164C542.953 170.164 545.474 167.618 545.474 164.486C545.474 161.355 542.936 158.804 539.809 158.804C536.682 158.804 534.123 161.351 534.123 164.486Z" fill="#1ED3FB"/>
</g>
<g style="mix-blend-mode:color-dodge">
<path d="M536.02 164.486C536.02 166.574 537.72 168.27 539.812 168.27C541.904 168.27 543.587 166.574 543.587 164.486C543.587 162.399 541.891 160.698 539.812 160.698C537.733 160.698 536.02 162.399 536.02 164.486Z" fill="#1ED3FB"/>
</g>
<g style="mix-blend-mode:color-dodge" opacity="0.3">
<path d="M114.991 309.291C114.991 314.186 118.964 318.16 123.872 318.16C128.779 318.16 132.736 314.191 132.736 309.291C132.736 304.392 128.763 300.419 123.872 300.419C118.981 300.419 114.991 304.392 114.991 309.291Z" fill="#1ED3FB"/>
</g>
<g style="mix-blend-mode:color-dodge" opacity="0.3">
<path d="M118.19 309.291C118.19 312.423 120.732 314.969 123.876 314.969C127.02 314.969 129.542 312.423 129.542 309.291C129.542 306.16 127.003 303.609 123.876 303.609C120.749 303.609 118.19 306.156 118.19 309.291Z" fill="#1ED3FB"/>
</g>
<g style="mix-blend-mode:color-dodge">
<path d="M120.08 309.291C120.08 311.379 121.78 313.071 123.872 313.071C125.964 313.071 127.647 311.375 127.647 309.291C127.647 307.208 125.951 305.503 123.872 305.503C121.793 305.503 120.08 307.204 120.08 309.291Z" fill="#1ED3FB"/>
</g>
<g style="mix-blend-mode:color-dodge" opacity="0.3">
<path d="M85.3107 213.756C85.3107 218.651 89.284 222.625 94.1916 222.625C99.0993 222.625 103.056 218.656 103.056 213.756C103.056 208.857 99.0824 204.884 94.1916 204.884C89.3008 204.884 85.3107 208.857 85.3107 213.756Z" fill="#1ED3FB"/>
</g>
<g style="mix-blend-mode:color-dodge" opacity="0.3">
<path d="M88.5024 213.756C88.5024 216.888 91.0447 219.434 94.1888 219.434C97.3329 219.434 99.854 216.888 99.854 213.756C99.854 210.625 97.316 208.074 94.1888 208.074C91.0615 208.074 88.5024 210.621 88.5024 213.756Z" fill="#1ED3FB"/>
</g>
<g style="mix-blend-mode:color-dodge">
<path d="M90.3923 213.756C90.3923 215.844 92.0927 217.536 94.1845 217.536C96.2764 217.536 97.96 215.84 97.96 213.756C97.96 211.673 96.2638 209.968 94.1845 209.968C92.1053 209.968 90.3923 211.669 90.3923 213.756Z" fill="#1ED3FB"/>
</g>
<g style="mix-blend-mode:color-dodge" opacity="0.3">
<path d="M543.624 233.955C543.624 234.978 544.461 235.815 545.484 235.815C546.507 235.815 547.344 234.982 547.344 233.955C547.344 232.928 546.507 232.095 545.484 232.095C544.461 232.095 543.624 232.924 543.624 233.955Z" fill="#1ED3FB"/>
</g>
<g style="mix-blend-mode:color-dodge" opacity="0.3">
<path d="M544.293 233.955C544.293 234.612 544.828 235.142 545.484 235.142C546.141 235.142 546.675 234.612 546.675 233.955C546.675 233.299 546.141 232.764 545.484 232.764C544.828 232.764 544.293 233.299 544.293 233.955Z" fill="#1ED3FB"/>
</g>
<g style="mix-blend-mode:color-dodge">
<path d="M544.691 233.955C544.691 234.389 545.036 234.746 545.478 234.746C545.92 234.746 546.27 234.389 546.27 233.955C546.27 233.522 545.92 233.16 545.478 233.16C545.036 233.16 544.691 233.517 544.691 233.955Z" fill="#1ED3FB"/>
</g>
<g style="mix-blend-mode:color-dodge" opacity="0.3">
<path d="M478.143 158.804C478.143 159.831 478.98 160.664 480.003 160.664C481.026 160.664 481.863 159.831 481.863 158.804C481.863 157.777 481.026 156.944 480.003 156.944C478.98 156.944 478.143 157.773 478.143 158.804Z" fill="#1ED3FB"/>
</g>
<g style="mix-blend-mode:color-dodge" opacity="0.3">
<path d="M478.812 158.804C478.812 159.461 479.347 159.991 480.003 159.991C480.66 159.991 481.194 159.461 481.194 158.804C481.194 158.148 480.66 157.613 480.003 157.613C479.347 157.613 478.812 158.148 478.812 158.804Z" fill="#1ED3FB"/>
</g>
<g style="mix-blend-mode:color-dodge">
<path d="M479.218 158.804C479.218 159.238 479.563 159.595 480.005 159.595C480.447 159.595 480.796 159.238 480.796 158.804C480.796 158.371 480.447 158.009 480.005 158.009C479.563 158.009 479.218 158.366 479.218 158.804Z" fill="#1ED3FB"/>
</g>
<g style="mix-blend-mode:color-dodge" opacity="0.3">
<path d="M175.576 193.781C175.576 194.808 176.413 195.641 177.436 195.641C178.459 195.641 179.296 194.808 179.296 193.781C179.296 192.754 178.463 191.92 177.436 191.92C176.409 191.92 175.576 192.749 175.576 193.781Z" fill="#1ED3FB"/>
</g>
<g style="mix-blend-mode:color-dodge" opacity="0.3">
<path d="M176.248 193.781C176.248 194.437 176.783 194.968 177.439 194.968C178.096 194.968 178.635 194.433 178.635 193.781C178.635 193.128 178.1 192.589 177.439 192.589C176.779 192.589 176.248 193.124 176.248 193.781Z" fill="#1ED3FB"/>
</g>
<g style="mix-blend-mode:color-dodge">
<path d="M176.651 193.781C176.651 194.214 176.996 194.572 177.438 194.572C177.88 194.572 178.229 194.214 178.229 193.781C178.229 193.347 177.88 192.985 177.438 192.985C176.996 192.985 176.651 193.343 176.651 193.781Z" fill="#1ED3FB"/>
</g>
<g style="mix-blend-mode:color-dodge" opacity="0.3">
<path d="M97.9877 125.225C97.9877 126.248 98.8253 127.085 99.8481 127.085C100.871 127.085 101.708 126.252 101.708 125.225C101.708 124.198 100.871 123.365 99.8481 123.365C98.8253 123.365 97.9877 124.194 97.9877 125.225Z" fill="#1ED3FB"/>
</g>
<g style="mix-blend-mode:color-dodge" opacity="0.3">
<path d="M98.6573 125.225C98.6573 125.882 99.1918 126.412 99.8484 126.412C100.505 126.412 101.04 125.878 101.04 125.225C101.04 124.573 100.505 124.034 99.8484 124.034C99.1918 124.034 98.6573 124.564 98.6573 125.225Z" fill="#1ED3FB"/>
</g>
<g style="mix-blend-mode:color-dodge">
<path d="M99.0554 125.225C99.0554 125.659 99.4006 126.016 99.8425 126.016C100.284 126.016 100.634 125.659 100.634 125.225C100.634 124.792 100.284 124.43 99.8425 124.43C99.4006 124.43 99.0554 124.787 99.0554 125.225Z" fill="#1ED3FB"/>
</g>
<g style="mix-blend-mode:color-dodge" opacity="0.3">
<path d="M61.4204 290.886C61.4204 291.908 62.258 292.746 63.2808 292.746C64.3036 292.746 65.1411 291.913 65.1411 290.886C65.1411 289.859 64.3078 289.025 63.2808 289.025C62.2538 289.025 61.4204 289.854 61.4204 290.886Z" fill="#1ED3FB"/>
</g>
<g style="mix-blend-mode:color-dodge" opacity="0.3">
<path d="M62.093 290.886C62.093 291.542 62.6276 292.073 63.2842 292.073C63.9408 292.073 64.4795 291.542 64.4795 290.886C64.4795 290.229 63.945 289.695 63.2842 289.695C62.6234 289.695 62.093 290.229 62.093 290.886Z" fill="#1ED3FB"/>
</g>
<g style="mix-blend-mode:color-dodge">
<path d="M62.488 290.886C62.488 291.319 62.8332 291.677 63.2752 291.677C63.7171 291.677 64.0664 291.319 64.0664 290.886C64.0664 290.452 63.7171 290.09 63.2752 290.09C62.8332 290.09 62.488 290.448 62.488 290.886Z" fill="#1ED3FB"/>
</g>
<g style="mix-blend-mode:color-dodge" opacity="0.3">
<path d="M43.946 261.069C43.946 263.119 45.6212 264.786 47.6625 264.786C49.7039 264.786 51.3833 263.119 51.3833 261.069C51.3833 259.02 49.7123 257.353 47.6625 257.353C45.6128 257.353 43.946 259.011 43.946 261.069Z" fill="#1ED3FB"/>
</g>
<g style="mix-blend-mode:color-dodge" opacity="0.3">
<path d="M45.2809 261.069C45.2809 262.382 46.35 263.447 47.659 263.447C48.9679 263.447 50.0454 262.382 50.0454 261.069C50.0454 259.756 48.9806 258.687 47.659 258.687C46.3373 258.687 45.2809 259.752 45.2809 261.069Z" fill="#1ED3FB"/>
</g>
<g style="mix-blend-mode:color-dodge">
<path d="M46.0918 261.069C46.0918 261.936 46.7863 262.652 47.666 262.652C48.5456 262.652 49.2485 261.936 49.2485 261.069C49.2485 260.202 48.5456 259.483 47.666 259.483C46.7863 259.483 46.0918 260.198 46.0918 261.069Z" fill="#1ED3FB"/>
</g>
<g style="mix-blend-mode:color-dodge" opacity="0.3">
<path d="M139.629 262.652C139.629 264.702 141.304 266.368 143.346 266.368C145.387 266.368 147.066 264.702 147.066 262.652C147.066 260.602 145.395 258.935 143.346 258.935C141.296 258.935 139.629 260.594 139.629 262.652Z" fill="#1ED3FB"/>
</g>
<g style="mix-blend-mode:color-dodge" opacity="0.3">
<path d="M140.964 262.652C140.964 263.965 142.033 265.03 143.342 265.03C144.651 265.03 145.729 263.965 145.729 262.652C145.729 261.339 144.664 260.27 143.342 260.27C142.02 260.27 140.964 261.334 140.964 262.652Z" fill="#1ED3FB"/>
</g>
<g style="mix-blend-mode:color-dodge">
<path d="M141.775 262.652C141.775 263.519 142.469 264.234 143.349 264.234C144.229 264.234 144.932 263.519 144.932 262.652C144.932 261.785 144.229 261.061 143.349 261.061C142.469 261.061 141.775 261.776 141.775 262.652Z" fill="#1ED3FB"/>
</g>
<g style="mix-blend-mode:color-dodge" opacity="0.3">
<path d="M156.146 130.806C156.146 132.856 157.821 134.523 159.862 134.523C161.904 134.523 163.583 132.856 163.583 130.806C163.583 128.756 161.912 127.09 159.862 127.09C157.812 127.09 156.146 128.748 156.146 130.806Z" fill="#1ED3FB"/>
</g>
<g style="mix-blend-mode:color-dodge" opacity="0.3">
<path d="M157.481 130.806C157.481 132.119 158.55 133.184 159.859 133.184C161.168 133.184 162.245 132.119 162.245 130.806C162.245 129.493 161.18 128.424 159.859 128.424C158.537 128.424 157.481 129.489 157.481 130.806Z" fill="#1ED3FB"/>
</g>
<g style="mix-blend-mode:color-dodge">
<path d="M158.292 130.806C158.292 131.673 158.986 132.389 159.866 132.389C160.745 132.389 161.448 131.673 161.448 130.806C161.448 129.939 160.745 129.215 159.866 129.215C158.986 129.215 158.292 129.931 158.292 130.806Z" fill="#1ED3FB"/>
</g>
<g style="mix-blend-mode:color-dodge" opacity="0.3">
<path d="M499.284 225.407C499.284 227.457 500.959 229.123 503 229.123C505.042 229.123 506.721 227.457 506.721 225.407C506.721 223.357 505.05 221.69 503 221.69C500.951 221.69 499.284 223.349 499.284 225.407Z" fill="#1ED3FB"/>
</g>
<g style="mix-blend-mode:color-dodge" opacity="0.3">
<path d="M500.619 225.407C500.619 226.72 501.688 227.785 502.997 227.785C504.306 227.785 505.383 226.72 505.383 225.407C505.383 224.094 504.318 223.025 502.997 223.025C501.675 223.025 500.619 224.089 500.619 225.407Z" fill="#1ED3FB"/>
</g>
<g style="mix-blend-mode:color-dodge">
<path d="M501.43 225.407C501.43 226.274 502.124 226.989 503.004 226.989C503.884 226.989 504.586 226.274 504.586 225.407C504.586 224.54 503.884 223.816 503.004 223.816C502.124 223.816 501.43 224.531 501.43 225.407Z" fill="#1ED3FB"/>
</g>
<g style="mix-blend-mode:color-dodge" opacity="0.3">
<path d="M592.766 232.095C592.766 234.145 594.442 235.812 596.483 235.812C598.524 235.812 600.204 234.145 600.204 232.095C600.204 230.045 598.533 228.379 596.483 228.379C594.433 228.379 592.766 230.037 592.766 232.095Z" fill="#1ED3FB"/>
</g>
<g style="mix-blend-mode:color-dodge" opacity="0.3">
<path d="M594.101 232.095C594.101 233.408 595.17 234.473 596.479 234.473C597.788 234.473 598.866 233.408 598.866 232.095C598.866 230.782 597.801 229.713 596.479 229.713C595.158 229.713 594.101 230.778 594.101 232.095Z" fill="#1ED3FB"/>
</g>
<g style="mix-blend-mode:color-dodge">
<path d="M594.912 232.095C594.912 232.962 595.607 233.678 596.486 233.678C597.366 233.678 598.069 232.962 598.069 232.095C598.069 231.228 597.366 230.504 596.486 230.504C595.607 230.504 594.912 231.22 594.912 232.095Z" fill="#1ED3FB"/>
</g>
<g style="mix-blend-mode:color-dodge" opacity="0.3">
<path d="M566.887 379.526C566.887 381.576 568.562 383.243 570.604 383.243C572.645 383.243 574.324 381.576 574.324 379.526C574.324 377.477 572.653 375.81 570.604 375.81C568.554 375.81 566.887 377.468 566.887 379.526Z" fill="#1ED3FB"/>
</g>
<g style="mix-blend-mode:color-dodge" opacity="0.3">
<path d="M568.222 379.526C568.222 380.84 569.291 381.904 570.6 381.904C571.909 381.904 572.986 380.84 572.986 379.526C572.986 378.213 571.921 377.144 570.6 377.144C569.278 377.144 568.222 378.209 568.222 379.526Z" fill="#1ED3FB"/>
</g>
<g style="mix-blend-mode:color-dodge">
<path d="M569.033 379.527C569.033 380.394 569.727 381.109 570.607 381.109C571.487 381.109 572.189 380.394 572.189 379.527C572.189 378.66 571.487 377.936 570.607 377.936C569.727 377.936 569.033 378.651 569.033 379.527Z" fill="#1ED3FB"/>
</g>
<g style="mix-blend-mode:color-dodge" opacity="0.3">
<path d="M301.851 161.788C294.657 171.263 305.344 181.975 314.848 174.781C322.108 165.261 311.333 154.515 301.851 161.788Z" fill="#1ED3FB"/>
</g>
<g style="mix-blend-mode:color-dodge" opacity="0.3">
<path d="M302.689 168.266C302.689 171.402 305.227 173.944 308.367 173.944C311.507 173.944 314.036 171.402 314.036 168.266C314.036 165.13 311.494 162.584 308.367 162.584C305.239 162.584 302.689 165.13 302.689 168.266Z" fill="#1ED3FB"/>
</g>
<g style="mix-blend-mode:color-dodge">
<path d="M305.576 170.998C308.661 173.439 312.15 171.254 312.15 168.266C312.15 166.178 310.449 164.482 308.37 164.482C305.407 164.482 303.214 167.908 305.576 170.998V170.998Z" fill="#1ED3FB"/>
</g>
<g style="mix-blend-mode:color-dodge" opacity="0.3">
<path d="M396.419 22.4086C389.226 31.883 399.912 42.5948 409.416 35.4017C416.677 25.881 405.902 15.1356 396.419 22.4086Z" fill="#1ED3FB"/>
</g>
<g style="mix-blend-mode:color-dodge" opacity="0.3">
<path d="M397.25 28.8864C397.25 32.0221 399.788 34.5643 402.928 34.5643C406.068 34.5643 408.597 32.0221 408.597 28.8864C408.597 25.7508 406.055 23.2043 402.928 23.2043C399.8 23.2043 397.25 25.7508 397.25 28.8864Z" fill="#1ED3FB"/>
</g>
<g style="mix-blend-mode:color-dodge">
<path d="M400.144 31.618C403.229 34.0592 406.718 31.8748 406.718 28.8864C406.718 26.7988 405.018 25.1025 402.939 25.1025C399.976 25.1025 397.783 28.5286 400.144 31.618V31.618Z" fill="#1ED3FB"/>
</g>
<g style="mix-blend-mode:color-dodge" opacity="0.3">
<path d="M280.468 453.785C273.275 463.26 283.961 473.971 293.465 466.778C300.725 457.258 289.951 446.512 280.468 453.785Z" fill="#1ED3FB"/>
</g>
<g style="mix-blend-mode:color-dodge" opacity="0.3">
<path d="M281.299 460.263C281.299 463.398 283.837 465.941 286.977 465.941C290.116 465.941 292.646 463.398 292.646 460.263C292.646 457.127 290.104 454.581 286.977 454.581C283.849 454.581 281.299 457.127 281.299 460.263Z" fill="#1ED3FB"/>
</g>
<g style="mix-blend-mode:color-dodge">
<path d="M284.193 462.995C287.278 465.436 290.767 463.251 290.767 460.263C290.767 458.175 289.067 456.479 286.987 456.479C284.024 456.479 281.831 459.905 284.193 462.995V462.995Z" fill="#1ED3FB"/>
</g>
<g style="mix-blend-mode:color-dodge" opacity="0.3">
<path d="M216.661 404.511C216.661 405.538 217.499 406.371 218.521 406.371C219.544 406.371 220.382 405.538 220.382 404.511C220.382 403.484 219.548 402.65 218.521 402.65C217.494 402.65 216.661 403.48 216.661 404.511Z" fill="#1ED3FB"/>
</g>
<g style="mix-blend-mode:color-dodge" opacity="0.3">
<path d="M217.334 404.511C217.334 405.167 217.868 405.698 218.525 405.698C219.181 405.698 219.72 405.167 219.72 404.511C219.72 403.854 219.186 403.32 218.525 403.32C217.864 403.32 217.334 403.854 217.334 404.511Z" fill="#1ED3FB"/>
</g>
<g style="mix-blend-mode:color-dodge">
<path d="M217.736 404.511C217.736 404.944 218.081 405.302 218.523 405.302C218.965 405.302 219.314 404.944 219.314 404.511C219.314 404.077 218.965 403.715 218.523 403.715C218.081 403.715 217.736 404.073 217.736 404.511Z" fill="#1ED3FB"/>
</g>
<g style="mix-blend-mode:color-dodge" opacity="0.3">
<path d="M102.514 501.616C102.514 502.638 103.351 503.476 104.374 503.476C105.397 503.476 106.234 502.643 106.234 501.616C106.234 500.589 105.401 499.755 104.374 499.755C103.347 499.755 102.514 500.584 102.514 501.616Z" fill="#1ED3FB"/>
</g>
<g style="mix-blend-mode:color-dodge" opacity="0.3">
<path d="M103.186 501.616C103.186 502.272 103.721 502.803 104.377 502.803C105.034 502.803 105.573 502.272 105.573 501.616C105.573 500.959 105.038 500.424 104.377 500.424C103.717 500.424 103.186 500.959 103.186 501.616Z" fill="#1ED3FB"/>
</g>
<g style="mix-blend-mode:color-dodge">
<path d="M103.589 501.616C103.589 502.049 103.934 502.407 104.376 502.407C104.818 502.407 105.167 502.049 105.167 501.616C105.167 501.182 104.818 500.82 104.376 500.82C103.934 500.82 103.589 501.178 103.589 501.616Z" fill="#1ED3FB"/>
</g>
<g style="mix-blend-mode:color-dodge" opacity="0.3">
<path d="M85.0315 471.795C85.0315 473.845 86.7066 475.512 88.748 475.512C90.7893 475.512 92.4688 473.845 92.4688 471.795C92.4688 469.745 90.7978 468.079 88.748 468.079C86.6982 468.079 85.0315 469.737 85.0315 471.795Z" fill="#1ED3FB"/>
</g>
<g style="mix-blend-mode:color-dodge" opacity="0.3">
<path d="M86.3663 471.795C86.3663 473.108 87.4353 474.173 88.7443 474.173C90.0533 474.173 91.1309 473.108 91.1309 471.795C91.1309 470.482 90.0659 469.413 88.7443 469.413C87.4227 469.413 86.3663 470.478 86.3663 471.795Z" fill="#1ED3FB"/>
</g>
<g style="mix-blend-mode:color-dodge">
<path d="M87.1773 471.795C87.1773 472.662 87.8717 473.378 88.7514 473.378C89.6311 473.378 90.334 472.662 90.334 471.795C90.334 470.928 89.6311 470.208 88.7514 470.208C87.8717 470.208 87.1773 470.924 87.1773 471.795Z" fill="#1ED3FB"/>
</g>
<g style="mix-blend-mode:color-dodge" opacity="0.3">
<path d="M620.211 513.599C620.211 514.626 621.049 515.459 622.072 515.459C623.095 515.459 623.932 514.626 623.932 513.599C623.932 512.572 623.099 511.738 622.072 511.738C621.045 511.738 620.211 512.567 620.211 513.599Z" fill="#1ED3FB"/>
</g>
<g style="mix-blend-mode:color-dodge" opacity="0.3">
<path d="M620.884 513.599C620.884 514.255 621.419 514.786 622.075 514.786C622.732 514.786 623.271 514.251 623.271 513.599C623.271 512.946 622.736 512.407 622.075 512.407C621.414 512.407 620.884 512.942 620.884 513.599Z" fill="#1ED3FB"/>
</g>
<g style="mix-blend-mode:color-dodge">
<path d="M621.286 513.599C621.286 514.032 621.632 514.39 622.073 514.39C622.515 514.39 622.865 514.032 622.865 513.599C622.865 513.165 622.515 512.803 622.073 512.803C621.632 512.803 621.286 513.161 621.286 513.599Z" fill="#1ED3FB"/>
</g>
<g style="mix-blend-mode:color-dodge" opacity="0.3">
<path d="M506.064 610.699C506.064 611.722 506.902 612.56 507.924 612.56C508.947 612.56 509.785 611.726 509.785 610.699C509.785 609.672 508.951 608.839 507.924 608.839C506.897 608.839 506.064 609.668 506.064 610.699Z" fill="#1ED3FB"/>
</g>
<g style="mix-blend-mode:color-dodge" opacity="0.3">
<path d="M506.737 610.699C506.737 611.356 507.271 611.886 507.928 611.886C508.584 611.886 509.123 611.356 509.123 610.699C509.123 610.043 508.589 609.508 507.928 609.508C507.267 609.508 506.737 610.043 506.737 610.699Z" fill="#1ED3FB"/>
</g>
<g style="mix-blend-mode:color-dodge">
<path d="M507.132 610.699C507.132 611.133 507.477 611.491 507.919 611.491C508.361 611.491 508.71 611.133 508.71 610.699C508.71 610.266 508.361 609.904 507.919 609.904C507.477 609.904 507.132 610.262 507.132 610.699Z" fill="#1ED3FB"/>
</g>
<g style="mix-blend-mode:color-dodge" opacity="0.3">
<path d="M488.589 580.883C488.589 582.933 490.264 584.599 492.306 584.599C494.347 584.599 496.026 582.933 496.026 580.883C496.026 578.833 494.355 577.166 492.306 577.166C490.256 577.166 488.589 578.825 488.589 580.883Z" fill="#1ED3FB"/>
</g>
<g style="mix-blend-mode:color-dodge" opacity="0.3">
<path d="M489.924 580.883C489.924 582.196 490.993 583.261 492.302 583.261C493.611 583.261 494.688 582.196 494.688 580.883C494.688 579.57 493.624 578.501 492.302 578.501C490.98 578.501 489.924 579.565 489.924 580.883Z" fill="#1ED3FB"/>
</g>
<g style="mix-blend-mode:color-dodge">
<path d="M490.735 580.883C490.735 581.75 491.429 582.466 492.309 582.466C493.189 582.466 493.892 581.75 493.892 580.883C493.892 580.016 493.189 579.296 492.309 579.296C491.429 579.296 490.735 580.012 490.735 580.883Z" fill="#1ED3FB"/>
</g>
<g style="mix-blend-mode:color-dodge" opacity="0.3">
<path d="M342.069 34.5261C342.069 35.5531 342.906 36.3865 343.929 36.3865C344.952 36.3865 345.79 35.5531 345.79 34.5261C345.79 33.4992 344.956 32.6658 343.929 32.6658C342.902 32.6658 342.069 33.4949 342.069 34.5261Z" fill="#1ED3FB"/>
</g>
<g style="mix-blend-mode:color-dodge" opacity="0.3">
<path d="M342.741 34.5261C342.741 35.1827 343.276 35.713 343.933 35.713C344.589 35.713 345.128 35.1785 345.128 34.5261C345.128 33.8737 344.593 33.335 343.933 33.335C343.272 33.335 342.741 33.8695 342.741 34.5261Z" fill="#1ED3FB"/>
</g>
<g style="mix-blend-mode:color-dodge">
<path d="M343.144 34.5262C343.144 34.9597 343.489 35.3175 343.931 35.3175C344.373 35.3175 344.722 34.9597 344.722 34.5262C344.722 34.0927 344.373 33.7307 343.931 33.7307C343.489 33.7307 343.144 34.0885 343.144 34.5262Z" fill="#1ED3FB"/>
</g>
<g style="mix-blend-mode:color-dodge" opacity="0.3">
<path d="M227.921 131.631C227.921 132.654 228.758 133.491 229.781 133.491C230.804 133.491 231.642 132.658 231.642 131.631C231.642 130.604 230.808 129.771 229.781 129.771C228.754 129.771 227.921 130.6 227.921 131.631Z" fill="#1ED3FB"/>
</g>
<g style="mix-blend-mode:color-dodge" opacity="0.3">
<path d="M228.586 131.631C228.586 132.288 229.121 132.818 229.777 132.818C230.434 132.818 230.973 132.288 230.973 131.631C230.973 130.975 230.438 130.44 229.777 130.44C229.117 130.44 228.586 130.975 228.586 131.631Z" fill="#1ED3FB"/>
</g>
<g style="mix-blend-mode:color-dodge">
<path d="M228.989 131.631C228.989 132.065 229.334 132.422 229.776 132.422C230.218 132.422 230.567 132.065 230.567 131.631C230.567 131.198 230.218 130.836 229.776 130.836C229.334 130.836 228.989 131.193 228.989 131.631Z" fill="#1ED3FB"/>
</g>
<g style="mix-blend-mode:color-dodge" opacity="0.3">
<path d="M210.431 101.815C210.431 103.865 212.107 105.531 214.148 105.531C216.189 105.531 217.869 103.865 217.869 101.815C217.869 99.7651 216.198 98.0984 214.148 98.0984C212.098 98.0984 210.431 99.7567 210.431 101.815Z" fill="#1ED3FB"/>
</g>
<g style="mix-blend-mode:color-dodge" opacity="0.3">
<path d="M211.766 101.815C211.766 103.128 212.835 104.193 214.144 104.193C215.453 104.193 216.531 103.128 216.531 101.815C216.531 100.502 215.466 99.4326 214.144 99.4326C212.823 99.4326 211.766 100.497 211.766 101.815Z" fill="#1ED3FB"/>
</g>
<g style="mix-blend-mode:color-dodge">
<path d="M212.577 101.815C212.577 102.682 213.272 103.397 214.151 103.397C215.031 103.397 215.734 102.682 215.734 101.815C215.734 100.948 215.031 100.228 214.151 100.228C213.272 100.228 212.577 100.944 212.577 101.815Z" fill="#1ED3FB"/>
</g>
<g style="mix-blend-mode:multiply" opacity="0.2">
<path d="M501.422 449.727C523.519 462.485 523.519 483.172 501.422 495.929C479.325 508.691 443.494 508.691 421.393 495.929C399.296 483.172 399.296 462.485 421.393 449.727C443.494 436.966 479.321 436.966 501.422 449.727Z" fill="#438BE3"/>
</g>
<path d="M394.776 312.296C394.776 322.596 403.127 330.938 413.418 330.938C423.708 330.938 432.059 322.591 432.059 312.296C432.059 302.001 423.713 293.655 413.418 293.655C403.122 293.655 394.776 302.001 394.776 312.296Z" fill="url(#paint12_radial_412_699)"/>
<path d="M404.644 325.302C400.292 322.789 396.777 316.682 396.777 311.665C396.777 309.817 397.257 308.378 398.074 307.418C399.446 306.867 401.222 307.069 403.162 308.193C407.514 310.705 411.037 316.808 411.037 321.83C411.037 323.673 410.553 325.117 409.737 326.076C408.36 326.632 406.584 326.422 404.644 325.302Z" fill="#0A208F"/>
<path d="M398.074 307.418C397.257 308.378 396.777 309.817 396.777 311.665C396.777 316.686 400.296 322.789 404.644 325.302C406.584 326.417 408.36 326.632 409.737 326.076C408.327 327.731 405.911 327.962 403.158 326.375C398.81 323.862 395.292 317.76 395.292 312.738C395.292 309.965 396.369 308.104 398.07 307.418H398.074Z" fill="#CFF2FF"/>
<path d="M513.867 359.344C513.795 362.295 513.421 366.217 513.042 369.147C512.576 372.752 511.865 377.135 510.908 382.296C510.895 382.35 509.687 388.542 507.608 395.587C505.912 401.354 505.108 403.471 503.168 408.572C500.634 415.256 496.606 423.005 493.845 427.214C490.65 432.075 487.03 437.244 480.949 442.24C477.897 444.752 472.973 448.031 466.857 449.403C456.608 451.701 448.359 447.463 445.286 445.531C441.679 443.262 440.151 441.911 437.563 439.533C435.071 437.244 431.944 433.279 431.927 433.249C427.92 427.773 427.31 426.932 424.216 421.359C421.648 416.725 420.003 412.777 418.264 408.597C415.806 402.696 412.406 392.174 410.339 381.963C408.285 371.828 407.241 362.442 407.224 354.07C407.203 346.835 408.02 340.227 409.64 334.427C411.879 326.379 415.562 321.409 416.774 319.771C418.437 317.528 422.179 313.197 428.551 309.426C433.391 306.56 438.939 304.413 445.029 303.045C457.479 300.25 467.829 301.648 471.23 302.111C476.967 302.885 481.891 304.573 483.756 305.204C485.393 305.764 488.744 307.065 492.873 309.514C495.688 311.328 497.107 312.237 499.582 314.468C502.435 317.044 504.329 319.578 504.839 320.298C509.245 326.476 511.026 332.15 512.078 336.414C512.394 337.689 512.772 339.402 512.958 340.703C513.336 343.396 513.638 346.152 513.863 348.969C514.069 351.616 514.035 352.946 513.871 359.348L513.867 359.344Z" fill="url(#paint13_radial_412_699)"/>
<path d="M490.14 308.853C474.449 299.408 448.472 299.143 432.116 308.264C415.764 317.381 415.229 332.428 430.916 341.873C446.607 351.313 472.58 351.579 488.936 342.462C505.288 333.341 505.823 318.298 490.136 308.853H490.14Z" fill="#CFF2FF"/>
<g style="mix-blend-mode:multiply" opacity="0.2">
<path d="M435.742 318.223C450.006 310.263 472.667 310.495 486.359 318.732C491.33 321.724 494.411 325.369 495.657 329.17C497.744 322.802 494.688 315.971 486.359 310.958C472.667 302.721 450.006 302.489 435.742 310.444C426.659 315.508 423.191 322.663 425.388 329.322C426.726 325.23 430.161 321.329 435.742 318.218V318.223Z" fill="#438BE3"/>
</g>
<path d="M486.362 318.732C472.67 310.491 450.009 310.263 435.745 318.223C430.164 321.333 426.729 325.235 425.391 329.326C426.641 333.126 429.722 336.771 434.697 339.768C448.38 348.005 471.05 348.232 485.31 340.277C490.895 337.171 494.321 333.261 495.66 329.17C494.41 325.369 491.333 321.724 486.362 318.732Z" fill="#0A208F"/>
<path d="M542.939 433.489V432.774C542.939 432.669 542.939 432.568 542.93 432.471C542.93 432.235 542.926 432.003 542.918 431.772C542.918 431.663 542.918 431.553 542.918 431.439C542.909 431.229 542.901 431.023 542.897 430.812C542.897 430.69 542.892 430.568 542.884 430.446C542.876 430.261 542.871 430.08 542.863 429.899C542.855 429.764 542.846 429.625 542.842 429.491C542.833 429.339 542.829 429.196 542.825 429.049C542.817 428.885 542.8 428.729 542.796 428.582C542.796 428.472 542.779 428.359 542.775 428.249C542.766 428.072 542.754 427.9 542.741 427.727C542.732 427.651 542.732 427.58 542.724 427.508C542.711 427.315 542.695 427.121 542.682 426.936C542.682 426.906 542.678 426.873 542.669 426.839C542.539 425.126 542.392 423.99 542.362 423.75C542.354 423.682 542.341 423.607 542.333 423.543C542.126 421.952 541.836 419.941 541.55 418.413C541.541 418.392 541.541 418.383 541.541 418.366C541.541 418.366 541.537 418.358 541.537 418.354C541.293 417.066 541.196 416.603 540.902 415.391C540.784 414.886 540.662 414.397 540.552 413.96C540.359 413.219 540.186 412.579 540.005 411.994C539.98 411.906 539.942 411.813 539.921 411.725C539.433 410.214 538.961 409.17 538.397 408.126C538.389 408.109 538.385 408.092 538.372 408.076C538.372 408.071 538.364 408.063 538.364 408.063C538.364 408.046 538.347 408.029 538.343 408.017C538.077 407.52 537.779 407.036 537.459 406.56C537.353 406.405 537.24 406.261 537.13 406.106C536.92 405.803 536.701 405.504 536.465 405.205C536.276 404.974 536.082 404.75 535.889 404.527C535.72 404.334 535.556 404.136 535.379 403.947C535.156 403.707 534.925 403.479 534.693 403.252C534.576 403.134 534.47 403.016 534.344 402.903C534.26 402.819 534.134 402.701 533.986 402.57C533.948 402.532 533.906 402.499 533.873 402.465C533.612 402.238 533.279 401.96 532.883 401.648C532.774 401.56 532.669 401.476 532.551 401.387C532.269 401.173 531.949 400.941 531.612 400.714C531.495 400.638 531.385 400.563 531.271 400.491C531.002 400.318 530.733 400.15 530.442 399.982C530.358 399.935 530.282 399.885 530.198 399.843C529.912 399.683 529.609 399.527 529.306 399.388C529.293 399.38 529.281 399.376 529.264 399.363C529.222 399.342 529.18 399.317 529.138 399.3C529.116 399.291 529.095 399.283 529.079 399.279C528.898 399.203 528.687 399.127 528.447 399.077C528.414 399.073 528.376 399.064 528.334 399.06C528.073 399.005 527.791 398.959 527.467 398.934C523.78 398.635 517.369 400.331 513.16 402.722C512.777 402.941 512.432 403.151 512.116 403.366C512.015 403.433 511.923 403.496 511.83 403.564C511.624 403.711 511.426 403.854 511.249 403.997C511.161 404.069 511.077 404.14 510.988 404.216C510.829 404.351 510.694 404.485 510.563 404.616C510.496 404.683 510.433 404.746 510.374 404.818C510.239 404.974 510.121 405.121 510.029 405.268C510.008 405.302 509.983 405.331 509.966 405.361C509.966 405.361 509.953 405.378 509.949 405.382C509.949 405.39 509.94 405.394 509.94 405.407C509.785 405.672 509.637 405.942 509.494 406.228C509.419 406.384 509.343 406.556 509.263 406.724C509.179 406.901 509.103 407.074 509.027 407.259C508.96 407.419 508.892 407.583 508.829 407.751C508.737 407.991 508.644 408.24 508.56 408.488C508.505 408.614 508.467 408.741 508.417 408.871C507.945 410.306 507.6 411.83 507.449 413.269C507.39 413.779 507.36 414.271 507.344 414.747C507.335 414.966 507.335 415.184 507.331 415.408C507.331 415.727 507.331 416.035 507.344 416.334C507.344 416.456 507.344 416.573 507.344 416.7C507.348 416.78 507.356 416.86 507.365 416.94C507.373 417.158 507.402 417.369 507.415 417.575C507.428 417.727 507.44 417.882 507.461 418.034C507.634 419.486 507.929 420.677 508.223 421.578C508.977 423.969 510.21 427.066 511.3 429.293C511.418 429.529 511.544 429.798 511.683 430.076C511.763 430.24 511.847 430.408 511.935 430.577C512.112 430.934 512.306 431.317 512.516 431.721C512.63 431.945 512.739 432.163 512.861 432.391C513.085 432.816 513.324 433.262 513.581 433.725C513.661 433.876 513.733 434.015 513.817 434.171C514.225 434.908 514.785 435.888 515.235 436.6C515.269 436.65 515.307 436.713 515.341 436.764C515.77 437.475 516.224 438.216 516.725 438.982C517.125 439.596 517.529 440.182 517.933 440.775C518.03 440.914 518.131 441.07 518.224 441.2C518.56 441.701 519.213 442.593 519.878 443.469C520.467 444.26 521.069 445.034 521.46 445.489C521.54 445.586 521.637 445.699 521.73 445.8C522.201 446.369 522.668 446.924 523.136 447.455C523.641 448.019 524.116 448.515 524.571 448.987C524.604 449.02 524.647 449.062 524.68 449.105C524.849 449.281 525.046 449.471 525.244 449.669C525.253 449.669 525.253 449.669 525.257 449.669C525.404 449.816 525.556 449.955 525.703 450.098C525.884 450.27 526.065 450.443 526.229 450.594C526.263 450.624 526.292 450.658 526.326 450.687C526.431 450.784 526.633 450.969 526.898 451.192C527.85 452.021 528.439 452.446 528.506 452.493C528.834 452.737 529.15 452.964 529.411 453.128C529.542 453.208 529.668 453.284 529.794 453.368C530.459 453.81 530.884 454.042 531.612 454.366C531.722 454.42 531.819 454.45 531.92 454.488C532.046 454.542 532.181 454.597 532.315 454.648C532.673 454.774 533.006 454.879 533.283 454.947C533.296 454.947 533.313 454.955 533.325 454.963C533.347 454.968 533.368 454.963 533.389 454.972C533.801 455.064 534.117 455.098 534.289 455.119H534.306C534.306 455.119 534.331 455.119 534.348 455.123C534.651 455.149 535.161 455.157 535.775 455.018C536.002 454.972 536.204 454.913 536.347 454.858C536.415 454.833 536.478 454.808 536.545 454.778C536.84 454.669 537.13 454.496 537.433 454.282C537.766 454.046 538.031 453.802 538.195 453.642C538.726 453.086 538.987 452.779 539.29 452.295C539.437 452.068 539.588 451.836 539.719 451.6C539.753 451.537 539.778 451.474 539.807 451.411C539.862 451.31 539.917 451.213 539.98 451.104C540.279 450.578 540.653 449.681 541.011 448.578C541.062 448.444 541.099 448.296 541.146 448.158C541.247 447.833 541.348 447.497 541.44 447.143C541.525 446.857 541.592 446.571 541.668 446.28C541.777 445.813 541.886 445.346 541.979 444.866C541.983 444.837 541.987 444.807 541.992 444.782C541.992 444.769 541.996 444.761 541.996 444.744C542.013 444.677 542.021 444.597 542.034 444.534C542.072 444.332 542.114 444.108 542.152 443.877C542.152 443.877 542.152 443.864 542.16 443.852C542.206 443.587 542.248 443.296 542.299 442.993C542.316 442.884 542.328 442.77 542.345 442.665C542.375 442.471 542.408 442.269 542.438 442.055C542.467 441.768 542.509 441.461 542.551 441.145C542.551 441.095 542.56 441.053 542.56 441.002C542.745 439.424 542.884 437.538 542.935 435.207C542.935 435.118 542.943 435.034 542.943 434.941V434.866C542.943 434.727 542.943 434.588 542.947 434.449C542.951 434.238 542.956 434.028 542.956 433.826V433.493L542.939 433.489Z" fill="url(#paint14_radial_412_699)"/>
<g style="mix-blend-mode:multiply" opacity="0.2">
<path d="M513.936 405.862C518.149 403.471 524.56 401.779 528.247 402.078C528.474 402.095 528.659 402.133 528.849 402.166C529.627 401.447 530.002 400.794 529.943 400.264H529.968C529.964 400.205 529.943 400.159 529.926 400.108C529.926 400.087 529.922 400.07 529.909 400.045C529.863 399.914 529.779 399.792 529.674 399.675C529.653 399.658 529.64 399.637 529.623 399.62C529.501 399.51 529.345 399.414 529.16 399.329C529.156 399.325 529.143 399.313 529.131 399.308H529.118C528.71 399.127 528.167 398.997 527.46 398.938C523.773 398.639 517.362 400.335 513.149 402.726C511.487 403.669 510.422 404.586 509.959 405.361H509.955C509.955 405.361 509.955 405.369 509.942 405.373C509.913 405.428 509.896 405.479 509.875 405.529C509.824 405.63 509.778 405.723 509.748 405.815C509.736 405.874 509.736 405.929 509.727 405.984C509.715 406.06 509.702 406.148 509.706 406.219C509.706 406.274 509.727 406.325 509.736 406.379C509.748 406.447 509.765 406.523 509.795 406.586C509.803 406.598 509.803 406.619 509.812 406.632L509.824 406.624C510.056 407.049 510.658 407.36 511.605 407.512C512.173 406.99 512.935 406.434 513.941 405.866L513.936 405.862Z" fill="#438BE3"/>
</g>
<path d="M528.841 402.162C528.651 402.128 528.462 402.095 528.239 402.074C524.552 401.775 518.142 403.471 513.928 405.857C512.923 406.426 512.161 406.981 511.593 407.503C511.786 407.537 511.971 407.571 512.194 407.592C515.89 407.89 522.296 406.194 526.505 403.808C527.511 403.239 528.285 402.684 528.841 402.162V402.162Z" fill="#0A208F"/>
<path d="M457.786 285.763C444.161 285.409 430.756 282.152 420.57 276.019C411.192 270.375 406.142 263.245 405.325 255.989C404.18 260.492 403.57 265.202 403.57 270.059C403.57 284.126 408.667 296.988 417.106 306.938C418.339 307.864 419.661 308.769 421.096 309.632C431.172 315.693 444.435 318.917 457.912 319.266C465.787 318.85 469.92 315.659 470.913 309.198C470.96 307.426 470.977 305.541 470.977 303.537C470.968 302.018 470.951 300.473 470.913 298.899C469.912 291.054 465.614 286.756 457.786 285.763V285.763Z" fill="#0A208F"/>
<g style="mix-blend-mode:multiply" opacity="0.3">
<path d="M470.918 298.899C469.916 291.054 465.619 286.756 457.79 285.763C444.165 285.409 430.76 282.152 420.574 276.019C411.197 270.375 406.146 263.245 405.329 255.989C405.115 256.835 404.938 257.693 404.761 258.548C406.091 265.379 411.525 272.416 420.301 277.699C430.491 283.831 443.892 287.089 457.521 287.442C465.349 288.436 469.642 292.733 470.644 300.574C470.678 302.153 470.699 303.697 470.703 305.217C470.703 307.09 470.686 308.849 470.648 310.52C470.749 310.095 470.842 309.653 470.913 309.198C470.96 307.426 470.977 305.541 470.977 303.537C470.968 302.018 470.951 300.473 470.913 298.899H470.918Z" fill="black"/>
</g>
<path d="M460.618 211.302C435.89 211.302 414.744 226.585 406.074 248.219C403.064 257.963 407.846 268.363 420.578 276.023C430.759 282.152 444.169 285.414 457.793 285.767C465.618 286.756 469.919 291.058 470.921 298.903C470.959 300.478 470.976 302.026 470.984 303.542C470.984 305.545 470.963 307.431 470.921 309.203C469.932 315.663 465.799 318.854 457.92 319.271C444.447 318.921 431.184 315.697 421.104 309.636C415.969 306.543 412.164 303.003 409.63 299.24C419.761 316.909 438.794 328.816 460.622 328.816C493.073 328.816 519.379 302.515 519.379 270.064C519.379 237.612 493.069 211.306 460.622 211.306L460.618 211.302Z" fill="#CFF2FF"/>
<path d="M460.618 211.302C435.89 211.302 414.744 226.585 406.074 248.219C403.064 257.963 407.846 268.363 420.578 276.023C430.759 282.152 444.169 285.414 457.793 285.767C465.618 286.756 469.919 291.058 470.921 298.903C470.959 300.478 470.976 302.026 470.984 303.542C470.984 305.545 470.963 307.431 470.921 309.203C469.932 315.663 465.799 318.854 457.92 319.271C444.447 318.921 431.184 315.697 421.104 309.636C415.969 306.543 412.164 303.003 409.63 299.24C419.761 316.909 438.794 328.816 460.622 328.816C493.073 328.816 519.379 302.515 519.379 270.064C519.379 237.612 493.069 211.306 460.622 211.306L460.618 211.302Z" fill="url(#paint15_radial_412_699)"/>
<path d="M457.149 317.818C444.955 317.398 432.896 314.527 423.582 309.485C417.833 306.374 413.775 302.696 411.384 298.781L411.342 298.79C411.22 298.579 411.119 298.365 411.006 298.158C410.98 298.112 410.959 298.066 410.934 298.019C409.659 295.763 408.518 293.411 407.55 290.974C407.55 293.773 408.236 296.555 409.625 299.236C412.159 302.999 415.968 306.538 421.099 309.632C431.175 315.693 444.437 318.917 457.915 319.266C465.335 318.879 469.43 316.013 470.706 310.293C466.008 318.244 460.128 317.919 457.153 317.818H457.149Z" fill="#CFF2FF"/>
<g style="mix-blend-mode:multiply" opacity="0.2">
<path d="M518.265 270.059C516.409 277.189 510.63 284.041 500.958 289.437C493.555 293.566 484.766 296.344 475.507 297.784C475.561 299.539 475.599 301.256 475.599 302.935C475.608 304.615 475.582 306.21 475.536 307.729C484.796 306.294 493.58 303.516 500.984 299.387C511.838 293.335 517.794 285.451 518.808 277.395C518.922 276.272 519.015 274.958 519.09 273.637C519.175 272.387 519.229 271.149 519.259 270.055H518.261L518.265 270.059Z" fill="#438BE3"/>
</g>
<g style="mix-blend-mode:color-dodge" opacity="0.3">
<path d="M445.525 299.695C445.525 305.364 441.669 309.965 436.913 309.965C432.157 309.965 428.306 305.364 428.306 299.695C428.306 294.025 432.157 289.429 436.913 289.429C441.669 289.429 445.525 294.025 445.525 299.695Z" fill="#1ED6FE"/>
</g>
<g style="mix-blend-mode:color-dodge" opacity="0.3">
<path d="M442.428 299.695C442.428 303.323 439.958 306.269 436.91 306.269C433.863 306.269 431.401 303.327 431.401 299.695C431.401 296.062 433.863 293.12 436.91 293.12C439.958 293.12 442.428 296.067 442.428 299.695Z" fill="#1ED6FE"/>
</g>
<g style="mix-blend-mode:color-dodge">
<path d="M440.58 299.695C440.58 302.111 438.938 304.072 436.909 304.072C434.881 304.072 433.239 302.111 433.239 299.695C433.239 297.279 434.889 295.317 436.909 295.317C438.93 295.317 440.58 297.279 440.58 299.695Z" fill="#1ED6FE"/>
</g>
<g style="mix-blend-mode:color-dodge" opacity="0.3">
<path d="M413.635 284.93C413.635 290.599 411.459 295.2 408.778 295.2C406.097 295.2 403.921 290.599 403.921 284.93C403.921 279.26 406.093 274.664 408.778 274.664C411.463 274.664 413.635 279.26 413.635 284.93Z" fill="#1ED6FE"/>
</g>
<g style="mix-blend-mode:color-dodge" opacity="0.3">
<path d="M411.884 284.93C411.884 288.558 410.491 291.504 408.778 291.504C407.065 291.504 405.663 288.562 405.663 284.93C405.663 281.297 407.048 278.355 408.778 278.355C410.508 278.355 411.884 281.306 411.884 284.93Z" fill="#1ED6FE"/>
</g>
<g style="mix-blend-mode:color-dodge">
<path d="M410.847 284.93C410.847 287.346 409.916 289.307 408.776 289.307C407.635 289.307 406.701 287.346 406.701 284.93C406.701 282.514 407.631 280.552 408.776 280.552C409.921 280.552 410.847 282.514 410.847 284.93Z" fill="#1ED6FE"/>
</g>
<g style="mix-blend-mode:multiply" opacity="0.2">
<path d="M512.347 350.206C512.347 358.885 506.252 369.433 498.739 373.768C491.226 378.108 485.132 374.589 485.132 365.914C485.132 357.24 491.222 346.688 498.739 342.353C506.252 338.013 512.342 341.528 512.347 350.206Z" fill="#438BE3"/>
</g>
<path d="M519.325 406.173C516.939 406.173 515.146 406.409 514.464 404.001L507.38 379.025C506.551 376.113 508.243 373.086 511.156 372.257C514.072 371.432 517.099 373.12 517.924 376.033L525.007 401.009C525.832 403.917 523.509 404.805 520.832 405.958C520.356 406.165 519.826 406.169 519.334 406.169L519.325 406.173Z" fill="#0A208F"/>
<path d="M528.288 364.685C528.288 374.858 520.039 383.112 509.861 383.112C499.684 383.112 491.443 374.863 491.443 364.685C491.443 354.508 499.688 346.263 509.861 346.263C520.034 346.263 528.288 354.512 528.288 364.685V364.685Z" fill="url(#paint16_radial_412_699)"/>
<path d="M375.756 339.815C373.875 339.815 372.044 338.847 371.03 337.108C369.497 334.499 370.369 331.144 372.978 329.612L401.338 312.974C403.944 311.446 407.302 312.317 408.834 314.927C410.366 317.537 409.491 320.895 406.881 322.423L378.526 339.061C377.659 339.575 376.699 339.815 375.76 339.815H375.756Z" fill="#0A208F"/>
<path d="M386.976 336.923C386.618 331.906 382.729 325.811 378.293 323.32C378.053 323.185 377.817 323.059 377.577 322.953C376.559 322.482 374.85 321.847 372.506 321.493C371.293 321.316 369.568 321.131 366.95 321.362C365.397 321.497 361.356 322.099 357.391 324.73C356.511 325.315 353.826 327.095 350.951 329.625C349.933 330.521 346.818 333.261 343.59 336.877C336.216 345.135 333.156 350.964 332.003 353.161C332.828 351.532 334.726 351.158 337.041 352.458C340.324 354.302 343.199 358.805 343.459 362.518C343.649 365.085 342.533 366.605 340.745 366.68C343.939 366.541 350.745 365.847 360.401 362.791C361.554 362.429 365.068 361.314 370.056 359.045C373.503 357.475 376.096 355.842 377.211 355.144C381.168 352.652 383.428 349.091 384.215 347.673C386.526 343.523 387.005 339.869 387.005 337.542C387.005 337.344 386.997 337.142 386.98 336.931L386.976 336.923Z" fill="url(#paint17_radial_412_699)"/>
<path d="M337.037 352.454C335.884 351.806 334.836 351.579 333.973 351.709C333.502 352.416 333.266 353.426 333.359 354.702C333.62 358.414 336.494 362.918 339.773 364.761C340.931 365.409 341.979 365.637 342.841 365.502C343.313 364.791 343.549 363.785 343.452 362.514C343.191 358.801 340.316 354.302 337.033 352.454H337.037Z" fill="#0A208F"/>
<path d="M339.781 364.761C336.502 362.918 333.627 358.414 333.366 354.702C333.274 353.426 333.505 352.42 333.981 351.709C332.386 351.953 331.413 353.426 331.582 355.83C331.847 359.542 334.722 364.046 338.005 365.893C340.16 367.101 341.948 366.861 342.849 365.502C341.986 365.637 340.938 365.409 339.781 364.761Z" fill="#CFF2FF"/>
<path d="M283.607 44.1981C285.614 43.0322 288.396 43.1921 291.465 44.9641L415.2 116.403C421.261 119.905 426.231 128.474 426.21 135.474L426.063 187.825C426.055 191.289 424.817 193.73 422.826 194.883L414.888 199.45C416.875 198.297 418.112 195.847 418.125 192.391L418.272 140.045C418.289 133.041 413.327 124.471 407.257 120.97L283.522 49.5308C280.458 47.7631 277.672 47.5989 275.66 48.7648L283.602 44.1981H283.607Z" fill="#C7DEEB"/>
<path d="M399.431 184.626L399.351 214L391.464 219.139L391.548 189.757L399.431 184.626Z" fill="#C7DEEB"/>
<path d="M283.522 49.5308C277.423 46.0121 272.456 48.8448 272.439 55.8443L272.292 108.191C272.271 115.157 277.208 123.747 283.303 127.266L375.066 180.244L391.469 219.144L391.553 189.761L407.042 198.705C413.103 202.207 418.103 199.357 418.124 192.391L418.271 140.045C418.288 133.041 413.326 124.471 407.257 120.97L283.522 49.5308V49.5308Z" fill="white"/>
<defs>
<linearGradient id="paint0_linear_412_699" x1="324.502" y1="724.649" x2="324.502" y2="397.229" gradientUnits="userSpaceOnUse">
<stop stop-color="#4C71F2"/>
<stop offset="1"/>
</linearGradient>
<linearGradient id="paint1_linear_412_699" x1="324.501" y1="721.382" x2="324.501" y2="412.31" gradientUnits="userSpaceOnUse">
<stop stop-color="white"/>
<stop offset="1"/>
</linearGradient>
<linearGradient id="paint2_linear_412_699" x1="324.507" y1="679.92" x2="324.507" y2="458.781" gradientUnits="userSpaceOnUse">
<stop stop-color="#4C71F2"/>
<stop offset="1"/>
</linearGradient>
<linearGradient id="paint3_linear_412_699" x1="324.51" y1="677.714" x2="324.51" y2="468.971" gradientUnits="userSpaceOnUse">
<stop stop-color="white"/>
<stop offset="1"/>
</linearGradient>
<linearGradient id="paint4_linear_412_699" x1="630.754" y1="524.247" x2="152.696" y2="524.247" gradientUnits="userSpaceOnUse">
<stop stop-color="#0043BB"/>
<stop offset="1" stop-color="#000450"/>
</linearGradient>
<linearGradient id="paint5_linear_412_699" x1="304.398" y1="20.0978" x2="304.398" y2="634.017" gradientUnits="userSpaceOnUse">
<stop/>
<stop offset="1" stop-color="#4C71F2"/>
</linearGradient>
<linearGradient id="paint6_linear_412_699" x1="57.8636" y1="180.792" x2="57.8636" y2="28.5284" gradientUnits="userSpaceOnUse">
<stop/>
<stop offset="1" stop-color="#48D5F2"/>
</linearGradient>
<linearGradient id="paint7_linear_412_699" x1="542.002" y1="415.5" x2="542.002" y2="343.758" gradientUnits="userSpaceOnUse">
<stop/>
<stop offset="1" stop-color="#48D5F2"/>
</linearGradient>
<linearGradient id="paint8_linear_412_699" x1="570.61" y1="178.675" x2="570.61" y2="19.2223" gradientUnits="userSpaceOnUse">
<stop/>
<stop offset="1" stop-color="#48D5F2"/>
</linearGradient>
<linearGradient id="paint9_linear_412_699" x1="253.197" y1="303.416" x2="253.197" y2="25.6958" gradientUnits="userSpaceOnUse">
<stop/>
<stop offset="1" stop-color="#48D5F2"/>
</linearGradient>
<linearGradient id="paint10_linear_412_699" x1="114.897" y1="380.061" x2="114.897" y2="228.938" gradientUnits="userSpaceOnUse">
<stop/>
<stop offset="1" stop-color="#48D5F2"/>
</linearGradient>
<linearGradient id="paint11_linear_412_699" x1="375.661" y1="196.382" x2="375.661" y2="35.9277" gradientUnits="userSpaceOnUse">
<stop/>
<stop offset="1" stop-color="#48D5F2"/>
</linearGradient>
<radialGradient id="paint12_radial_412_699" cx="0" cy="0" r="1" gradientUnits="userSpaceOnUse" gradientTransform="translate(407.849 306.24) rotate(180) scale(55.1417 55.1416)">
<stop offset="0.23" stop-color="#CFF2FF"/>
<stop offset="1" stop-color="#438BE3"/>
</radialGradient>
<radialGradient id="paint13_radial_412_699" cx="0" cy="0" r="1" gradientUnits="userSpaceOnUse" gradientTransform="translate(486.896 349.924) scale(157.903 157.903)">
<stop offset="0.29" stop-color="#CFF2FF"/>
<stop offset="1" stop-color="#438BE3"/>
</radialGradient>
<radialGradient id="paint14_radial_412_699" cx="0" cy="0" r="1" gradientUnits="userSpaceOnUse" gradientTransform="translate(529.184 418.089) scale(61.0215 61.0215)">
<stop offset="0.1" stop-color="#CFF2FF"/>
<stop offset="1" stop-color="#438BE3"/>
</radialGradient>
<radialGradient id="paint15_radial_412_699" cx="0" cy="0" r="1" gradientUnits="userSpaceOnUse" gradientTransform="translate(472.95 258.085) scale(121.656 121.656)">
<stop offset="0.42" stop-color="#CFF2FF"/>
<stop offset="1" stop-color="#438BE3"/>
</radialGradient>
<radialGradient id="paint16_radial_412_699" cx="0" cy="0" r="1" gradientUnits="userSpaceOnUse" gradientTransform="translate(515.367 358.696) scale(53.1381 53.1382)">
<stop offset="0.23" stop-color="#CFF2FF"/>
<stop offset="1" stop-color="#438BE3"/>
</radialGradient>
<radialGradient id="paint17_radial_412_699" cx="0" cy="0" r="1" gradientUnits="userSpaceOnUse" gradientTransform="translate(366.504 338.127) scale(65.6514 65.6514)">
<stop offset="0.14" stop-color="#CFF2FF"/>
<stop offset="1" stop-color="#438BE3"/>
</radialGradient>
</defs>
</svg>
