<svg width="635" height="403" viewBox="0 0 635 403" fill="none" xmlns="http://www.w3.org/2000/svg">
<path d="M487.603 40.4141H484.967V21.8691L481.246 24.125V21.4883L485.377 18.8516H487.603V40.4141ZM504.642 19.4668C504.154 26.7715 501.009 32.4551 495.209 36.5176L493.392 34.7891C498.158 31.332 500.912 27.0254 501.654 21.8691H494.593V19.4668H504.642ZM509.183 25.9707H511.908V15.7754H514.545V43.7832H511.908V28.3438H509.183V41.9082H506.576V16.3906H509.183V25.9707ZM538.339 32.0938H526.708V17.8848H529.345V22.543H535.702V17.8848H538.339V23.3926H542.968V15.7754H545.693V36.3711H542.968V25.7949H538.339V32.0938ZM535.702 29.7207V24.916H529.345V29.7207H535.702ZM546.103 43.9297H532.011V35.0527H534.706V41.5273H546.103V43.9297ZM558.893 24.3008C558.893 23.7344 558.796 23.1875 558.6 22.6602C558.425 22.1328 558.161 21.6836 557.809 21.3125C557.458 20.9219 557.048 20.6289 556.579 20.4336C556.11 20.2383 555.622 20.1406 555.114 20.1406C554.606 20.1406 554.118 20.2383 553.649 20.4336C553.181 20.6289 552.77 20.9219 552.419 21.3125C552.067 21.6836 551.794 22.1328 551.599 22.6602C551.423 23.1875 551.335 23.7344 551.335 24.3008C551.335 24.8867 551.423 25.4434 551.599 25.9707C551.794 26.4785 552.067 26.9277 552.419 27.3184C552.77 27.6895 553.181 27.9824 553.649 28.1973C554.118 28.3926 554.606 28.4902 555.114 28.4902C555.622 28.4902 556.11 28.3926 556.579 28.1973C557.048 27.9824 557.458 27.6895 557.809 27.3184C558.161 26.9277 558.425 26.4785 558.6 25.9707C558.796 25.4434 558.893 24.8867 558.893 24.3008ZM561.618 24.3008C561.618 24.9844 561.53 25.6484 561.354 26.293H565.661V22.1035H561.266C561.501 22.8066 561.618 23.5391 561.618 24.3008ZM560.036 28.6953C559.958 28.793 559.87 28.8809 559.772 28.959C559.186 29.5645 558.483 30.0332 557.663 30.3652C556.862 30.6777 556.013 30.834 555.114 30.834C554.216 30.834 553.356 30.6777 552.536 30.3652C551.735 30.0332 551.042 29.5645 550.456 28.959C549.87 28.373 549.411 27.6699 549.079 26.8496C548.766 26.0293 548.61 25.1797 548.61 24.3008C548.61 23.4219 548.766 22.5723 549.079 21.752C549.411 20.9316 549.87 20.2383 550.456 19.6719C551.042 19.0664 551.735 18.5977 552.536 18.2656C553.356 17.9336 554.216 17.7676 555.114 17.7676C556.013 17.7676 556.862 17.9336 557.663 18.2656C558.483 18.5977 559.186 19.0664 559.772 19.6719L559.831 19.7305H565.661V15.7754H568.356V32.6504H565.661V28.6953H560.036ZM568.239 44.5156H565.544V36.3711H553.766V33.9688H568.239V44.5156ZM592.268 35.2578H580.52V18.9688H583.157V24.5059H589.631V18.9688H592.268V35.2578ZM589.631 32.8555V26.8789H583.157V32.8555H589.631ZM599.504 43.7832H596.78V15.7754H599.504V43.7832ZM617.744 21.8691C617.744 20.9316 617.344 20.1504 616.543 19.5254C615.742 18.8809 614.756 18.5586 613.584 18.5586C612.393 18.5586 611.397 18.8809 610.596 19.5254C609.795 20.1504 609.395 20.9316 609.395 21.8691C609.395 22.8066 609.795 23.5977 610.596 24.2422C611.397 24.8867 612.393 25.209 613.584 25.209C614.756 25.209 615.742 24.8867 616.543 24.2422C617.344 23.5977 617.744 22.8066 617.744 21.8691ZM620.469 21.8691C620.469 22.6504 620.303 23.4023 619.971 24.125C619.658 24.7109 619.278 25.2285 618.828 25.6777V29.8379H625.098V32.2402H602.041V29.8379H608.311V25.6777C607.861 25.2285 607.5 24.7109 607.227 24.125C606.856 23.4023 606.67 22.6504 606.67 21.8691C606.67 21.0879 606.846 20.3457 607.197 19.6426C607.549 18.9199 608.037 18.2949 608.662 17.7676C609.268 17.2402 610 16.8398 610.86 16.5664C611.738 16.2734 612.647 16.127 613.584 16.127C614.522 16.127 615.42 16.2734 616.279 16.5664C617.139 16.8398 617.881 17.2402 618.506 17.7676C619.111 18.2949 619.59 18.9199 619.942 19.6426C620.293 20.3457 620.469 21.0879 620.469 21.8691ZM616.162 27.2598C615.342 27.5137 614.483 27.6406 613.584 27.6406C612.686 27.6406 611.826 27.5137 611.006 27.2598V29.8379H616.162V27.2598ZM617.803 38.9785C617.803 38.0605 617.393 37.2891 616.572 36.6641C615.772 36.0391 614.776 35.7266 613.584 35.7266C612.393 35.7266 611.397 36.0391 610.596 36.6641C609.795 37.2891 609.395 38.0605 609.395 38.9785C609.395 39.8965 609.795 40.668 610.596 41.293C611.397 41.918 612.393 42.2305 613.584 42.2305C614.776 42.2305 615.772 41.918 616.572 41.293C617.393 40.668 617.803 39.8965 617.803 38.9785ZM620.498 38.9785C620.498 39.7402 620.322 40.4727 619.971 41.1758C619.619 41.8984 619.141 42.5039 618.535 42.9922C617.91 43.5195 617.158 43.9199 616.279 44.1934C615.42 44.4668 614.522 44.6035 613.584 44.6035C612.666 44.6035 611.768 44.4668 610.889 44.1934C610.01 43.9199 609.268 43.5195 608.662 42.9922C608.037 42.5039 607.549 41.8984 607.197 41.1758C606.865 40.4727 606.699 39.7402 606.699 38.9785C606.699 38.2168 606.865 37.4844 607.197 36.7812C607.549 36.0781 608.037 35.4727 608.662 34.9648C609.268 34.4375 610.01 34.0371 610.889 33.7637C611.768 33.4707 612.666 33.3242 613.584 33.3242C614.522 33.3242 615.42 33.4707 616.279 33.7637C617.158 34.0371 617.91 34.4375 618.535 34.9648C619.141 35.4727 619.619 36.0781 619.971 36.7812C620.322 37.4844 620.498 38.2168 620.498 38.9785Z" fill="white"/>
<path d="M175.744 377.232C175.744 377.936 175.617 378.697 175.363 379.518C175.129 380.338 174.787 381.041 174.338 381.627C173.83 382.252 173.166 382.74 172.345 383.092C171.525 383.443 170.607 383.619 169.591 383.619C168.615 383.619 167.746 383.492 166.984 383.238C166.222 382.984 165.607 382.652 165.138 382.242C164.65 381.832 164.279 381.314 164.025 380.689C163.771 380.045 163.605 379.332 163.527 378.551H166.515C166.515 378.961 166.584 379.352 166.72 379.723C166.877 380.074 167.082 380.377 167.336 380.631C167.55 380.846 167.834 381.041 168.185 381.217C168.556 381.393 168.996 381.48 169.504 381.48C170.5 381.48 171.339 381.09 172.023 380.309C172.707 379.508 173.048 378.482 173.048 377.232C173.048 376.412 172.882 375.738 172.55 375.211C172.218 374.684 171.828 374.283 171.379 374.01C170.929 373.697 170.421 373.482 169.855 373.365C169.289 373.248 168.722 373.189 168.156 373.189V371.051C169.796 371.051 170.968 370.709 171.671 370.025C172.375 369.322 172.726 368.434 172.726 367.359C172.726 366.207 172.404 365.348 171.759 364.781C171.134 364.215 170.461 363.932 169.738 363.932C168.8 363.932 168.058 364.195 167.511 364.723C166.984 365.23 166.681 365.904 166.603 366.744H163.908C163.908 366.197 164.005 365.611 164.201 364.986C164.416 364.361 164.738 363.814 165.168 363.346C165.636 362.896 166.242 362.525 166.984 362.232C167.726 361.92 168.595 361.764 169.591 361.764C170.295 361.783 171.046 361.91 171.847 362.145C172.648 362.359 173.293 362.711 173.781 363.199C174.347 363.727 174.757 364.332 175.011 365.016C175.285 365.68 175.421 366.461 175.421 367.359C175.421 367.887 175.314 368.473 175.099 369.117C174.904 369.762 174.572 370.328 174.103 370.816C173.4 371.5 172.824 371.93 172.375 372.105C173 372.301 173.644 372.73 174.308 373.395C174.738 373.844 175.08 374.361 175.334 374.947C175.607 375.533 175.744 376.295 175.744 377.232ZM183.876 381.393C184.306 381.393 184.755 381.217 185.224 380.865C185.693 380.514 186.074 379.938 186.367 379.137C186.679 378.336 186.913 377.369 187.07 376.236C187.226 375.084 187.304 373.893 187.304 372.662C187.304 371.412 187.216 370.221 187.04 369.088C186.884 367.955 186.66 366.979 186.367 366.158C186.074 365.338 185.693 364.762 185.224 364.43C184.755 364.098 184.306 363.932 183.876 363.932C183.427 363.932 182.968 364.098 182.499 364.43C182.05 364.762 181.679 365.338 181.386 366.158C181.093 366.979 180.859 367.955 180.683 369.088C180.527 370.221 180.449 371.412 180.449 372.662C180.449 373.893 180.527 375.084 180.683 376.236C180.839 377.369 181.064 378.336 181.357 379.137C181.669 379.938 182.05 380.514 182.499 380.865C182.968 381.217 183.427 381.393 183.876 381.393ZM183.876 383.678C183.036 383.678 182.197 383.443 181.357 382.975C180.517 382.486 179.833 381.734 179.306 380.719C178.779 379.703 178.378 378.492 178.105 377.086C177.851 375.66 177.724 374.186 177.724 372.662C177.724 371.139 177.851 369.664 178.105 368.238C178.378 366.812 178.779 365.592 179.306 364.576C179.853 363.561 180.536 362.818 181.357 362.35C182.197 361.861 183.036 361.617 183.876 361.617C184.716 361.617 185.546 361.861 186.367 362.35C187.206 362.818 187.9 363.561 188.447 364.576C188.974 365.592 189.365 366.812 189.619 368.238C189.892 369.664 190.029 371.139 190.029 372.662C190.029 374.186 189.892 375.66 189.619 377.086C189.365 378.492 188.974 379.703 188.447 380.719C187.919 381.734 187.236 382.486 186.396 382.975C185.556 383.443 184.716 383.678 183.876 383.678ZM198.073 381.393C198.503 381.393 198.952 381.217 199.421 380.865C199.89 380.514 200.271 379.938 200.564 379.137C200.876 378.336 201.11 377.369 201.267 376.236C201.423 375.084 201.501 373.893 201.501 372.662C201.501 371.412 201.413 370.221 201.237 369.088C201.081 367.955 200.857 366.979 200.564 366.158C200.271 365.338 199.89 364.762 199.421 364.43C198.952 364.098 198.503 363.932 198.073 363.932C197.624 363.932 197.165 364.098 196.696 364.43C196.247 364.762 195.876 365.338 195.583 366.158C195.29 366.979 195.056 367.955 194.88 369.088C194.724 370.221 194.646 371.412 194.646 372.662C194.646 373.893 194.724 375.084 194.88 376.236C195.036 377.369 195.261 378.336 195.554 379.137C195.866 379.938 196.247 380.514 196.696 380.865C197.165 381.217 197.624 381.393 198.073 381.393ZM198.073 383.678C197.234 383.678 196.394 383.443 195.554 382.975C194.714 382.486 194.03 381.734 193.503 380.719C192.976 379.703 192.575 378.492 192.302 377.086C192.048 375.66 191.921 374.186 191.921 372.662C191.921 371.139 192.048 369.664 192.302 368.238C192.575 366.812 192.976 365.592 193.503 364.576C194.05 363.561 194.734 362.818 195.554 362.35C196.394 361.861 197.234 361.617 198.073 361.617C198.913 361.617 199.743 361.861 200.564 362.35C201.403 362.818 202.097 363.561 202.644 364.576C203.171 365.592 203.562 366.812 203.816 368.238C204.089 369.664 204.226 371.139 204.226 372.662C204.226 374.186 204.089 375.66 203.816 377.086C203.562 378.492 203.171 379.703 202.644 380.719C202.116 381.734 201.433 382.486 200.593 382.975C199.753 383.443 198.913 383.678 198.073 383.678ZM218.071 374.479H206.616V361.09H218.071V374.479ZM215.405 372.076V363.492H209.253V372.076H215.405ZM228.882 368.795H224.604V379.137H221.909V358.775H224.604V366.246H228.882V368.795ZM225.132 386.93H211.04V377.584H213.735V384.527H225.132V386.93ZM249.366 365.455C249.366 364.635 249.024 363.951 248.34 363.404C247.657 362.838 246.807 362.555 245.791 362.555C244.776 362.555 243.926 362.838 243.243 363.404C242.559 363.951 242.217 364.635 242.217 365.455C242.217 366.275 242.559 366.959 243.243 367.506C243.926 368.053 244.776 368.326 245.791 368.326C246.807 368.326 247.657 368.053 248.34 367.506C249.024 366.959 249.366 366.275 249.366 365.455ZM252.061 365.455C252.061 366.178 251.905 366.871 251.592 367.535C251.28 368.18 250.85 368.746 250.303 369.234C249.717 369.703 249.034 370.074 248.252 370.348C247.471 370.602 246.651 370.729 245.791 370.729C244.932 370.729 244.112 370.602 243.33 370.348C242.549 370.074 241.866 369.703 241.28 369.234C240.733 368.746 240.303 368.18 239.991 367.535C239.678 366.871 239.522 366.178 239.522 365.455C239.522 364.732 239.678 364.039 239.991 363.375C240.303 362.711 240.733 362.145 241.28 361.676C241.866 361.188 242.549 360.816 243.33 360.562C244.112 360.309 244.932 360.182 245.791 360.182C246.651 360.182 247.471 360.309 248.252 360.562C249.034 360.816 249.717 361.188 250.303 361.676C250.85 362.145 251.28 362.711 251.592 363.375C251.905 364.039 252.061 364.732 252.061 365.455ZM246.641 374.508V378.434H243.916V374.508H237.852V372.105H245.293C246.289 372.105 247.637 372.076 249.336 372.018C251.036 371.959 252.705 371.773 254.346 371.461V373.893C252.842 374.186 251.241 374.361 249.541 374.42C248.467 374.459 247.5 374.488 246.641 374.508ZM255.489 381.188V378.521H249.688V376.119H255.489V358.775H258.184V381.188H255.489ZM258.594 386.93H243.623V379.576H246.348V384.527H258.594V386.93Z" fill="white"/>
<path d="M401.441 377.232C401.441 377.936 401.314 378.697 401.06 379.518C400.826 380.338 400.484 381.041 400.035 381.627C399.527 382.252 398.863 382.74 398.042 383.092C397.222 383.443 396.304 383.619 395.288 383.619C394.312 383.619 393.443 383.492 392.681 383.238C391.919 382.984 391.304 382.652 390.835 382.242C390.347 381.832 389.976 381.314 389.722 380.689C389.468 380.045 389.302 379.332 389.224 378.551H392.212C392.212 378.961 392.281 379.352 392.417 379.723C392.574 380.074 392.779 380.377 393.033 380.631C393.247 380.846 393.531 381.041 393.882 381.217C394.253 381.393 394.693 381.48 395.201 381.48C396.197 381.48 397.036 381.09 397.72 380.309C398.404 379.508 398.745 378.482 398.745 377.232C398.745 376.412 398.579 375.738 398.247 375.211C397.915 374.684 397.525 374.283 397.076 374.01C396.626 373.697 396.119 373.482 395.552 373.365C394.986 373.248 394.419 373.189 393.853 373.189V371.051C395.494 371.051 396.665 370.709 397.369 370.025C398.072 369.322 398.423 368.434 398.423 367.359C398.423 366.207 398.101 365.348 397.456 364.781C396.831 364.215 396.158 363.932 395.435 363.932C394.497 363.932 393.755 364.195 393.208 364.723C392.681 365.23 392.378 365.904 392.3 366.744H389.605C389.605 366.197 389.702 365.611 389.898 364.986C390.113 364.361 390.435 363.814 390.865 363.346C391.333 362.896 391.939 362.525 392.681 362.232C393.423 361.92 394.292 361.764 395.288 361.764C395.992 361.783 396.744 361.91 397.544 362.145C398.345 362.359 398.99 362.711 399.478 363.199C400.044 363.727 400.454 364.332 400.708 365.016C400.982 365.68 401.119 366.461 401.119 367.359C401.119 367.887 401.011 368.473 400.796 369.117C400.601 369.762 400.269 370.328 399.8 370.816C399.097 371.5 398.521 371.93 398.072 372.105C398.697 372.301 399.341 372.73 400.005 373.395C400.435 373.844 400.777 374.361 401.031 374.947C401.304 375.533 401.441 376.295 401.441 377.232ZM415.374 374.479H403.919V361.09H415.374V374.479ZM412.708 372.076V363.492H406.556V372.076H412.708ZM426.185 368.795H421.907V379.137H419.212V358.775H421.907V366.246H426.185V368.795ZM422.435 386.93H408.343V377.584H411.038V384.527H422.435V386.93ZM446.669 365.455C446.669 364.635 446.327 363.951 445.643 363.404C444.96 362.838 444.11 362.555 443.094 362.555C442.079 362.555 441.229 362.838 440.546 363.404C439.862 363.951 439.52 364.635 439.52 365.455C439.52 366.275 439.862 366.959 440.546 367.506C441.229 368.053 442.079 368.326 443.094 368.326C444.11 368.326 444.96 368.053 445.643 367.506C446.327 366.959 446.669 366.275 446.669 365.455ZM449.364 365.455C449.364 366.178 449.208 366.871 448.895 367.535C448.583 368.18 448.153 368.746 447.606 369.234C447.02 369.703 446.337 370.074 445.555 370.348C444.774 370.602 443.954 370.729 443.094 370.729C442.235 370.729 441.415 370.602 440.633 370.348C439.852 370.074 439.169 369.703 438.583 369.234C438.036 368.746 437.606 368.18 437.294 367.535C436.981 366.871 436.825 366.178 436.825 365.455C436.825 364.732 436.981 364.039 437.294 363.375C437.606 362.711 438.036 362.145 438.583 361.676C439.169 361.188 439.852 360.816 440.633 360.562C441.415 360.309 442.235 360.182 443.094 360.182C443.954 360.182 444.774 360.309 445.555 360.562C446.337 360.816 447.02 361.188 447.606 361.676C448.153 362.145 448.583 362.711 448.895 363.375C449.208 364.039 449.364 364.732 449.364 365.455ZM443.944 374.508V378.434H441.219V374.508H435.155V372.105H442.596C443.592 372.105 444.94 372.076 446.639 372.018C448.339 371.959 450.008 371.773 451.649 371.461V373.893C450.145 374.186 448.544 374.361 446.844 374.42C445.77 374.459 444.803 374.488 443.944 374.508ZM452.792 381.188V378.521H446.991V376.119H452.792V358.775H455.487V381.188H452.792ZM455.897 386.93H440.926V379.576H443.651V384.527H455.897V386.93Z" fill="white"/>
<path d="M452.393 70.7188C452.393 71.625 452.44 72.5 452.534 73.3438C452.628 74.1719 452.768 74.9375 452.956 75.6406C453.128 76.3281 453.339 76.9219 453.589 77.4219C453.854 77.9219 454.198 78.2812 454.62 78.5V79.9297C453.448 79.6016 452.589 79.0469 452.042 78.2656C451.495 77.5 451.096 76.625 450.846 75.6406C450.581 74.7031 450.409 73.7266 450.331 72.7109C450.253 71.6953 450.214 70.7812 450.214 69.9688V66.9453C450.214 66.1016 450.253 65.1719 450.331 64.1562C450.409 63.1406 450.581 62.1641 450.846 61.2266C451.096 60.2422 451.495 59.3672 452.042 58.6016C452.589 57.8203 453.448 57.2734 454.62 56.9609V58.3672C454.198 58.5859 453.854 58.9453 453.589 59.4453C453.339 59.9453 453.128 60.5469 452.956 61.25C452.768 61.9375 452.628 62.7031 452.534 63.5469C452.44 64.375 452.393 65.25 452.393 66.1719V70.7188ZM464.852 62.1641C464.852 61.5078 464.579 60.9609 464.032 60.5234C463.485 60.0703 462.806 59.8438 461.993 59.8438C461.181 59.8438 460.501 60.0703 459.954 60.5234C459.407 60.9609 459.134 61.5078 459.134 62.1641C459.134 62.8203 459.407 63.3672 459.954 63.8047C460.501 64.2422 461.181 64.4609 461.993 64.4609C462.806 64.4609 463.485 64.2422 464.032 63.8047C464.579 63.3672 464.852 62.8203 464.852 62.1641ZM467.009 62.1641C467.009 62.7422 466.884 63.2969 466.634 63.8281C466.384 64.3438 466.04 64.7969 465.602 65.1875C465.134 65.5625 464.587 65.8594 463.962 66.0781C463.337 66.2812 462.681 66.3828 461.993 66.3828C461.306 66.3828 460.649 66.2812 460.024 66.0781C459.399 65.8594 458.852 65.5625 458.384 65.1875C457.946 64.7969 457.602 64.3438 457.352 63.8281C457.102 63.2969 456.977 62.7422 456.977 62.1641C456.977 61.5859 457.102 61.0312 457.352 60.5C457.602 59.9688 457.946 59.5156 458.384 59.1406C458.852 58.75 459.399 58.4531 460.024 58.25C460.649 58.0469 461.306 57.9453 461.993 57.9453C462.681 57.9453 463.337 58.0469 463.962 58.25C464.587 58.4531 465.134 58.75 465.602 59.1406C466.04 59.5156 466.384 59.9688 466.634 60.5C466.884 61.0312 467.009 61.5859 467.009 62.1641ZM462.673 69.4062V72.5469H460.493V69.4062H455.642V67.4844H461.595C462.392 67.4844 463.47 67.4609 464.829 67.4141C466.188 67.3672 467.524 67.2188 468.837 66.9688V68.9141C467.634 69.1484 466.352 69.2891 464.993 69.3359C464.134 69.3672 463.36 69.3906 462.673 69.4062ZM469.751 74.75V72.6172H465.11V70.6953H469.751V56.8203H471.907V74.75H469.751ZM472.235 79.3438H460.259V73.4609H462.438V77.4219H472.235V79.3438ZM488.749 63.4766C488.734 65.9766 488.366 68.5859 487.648 71.3047H485.491C486.241 68.4922 486.616 65.8438 486.616 63.3594V61.1797H476.749V59.2578H488.749V63.4766ZM492.382 76.3438H473.937V74.3984H480.757V66.5703H482.913V74.3984H492.382V76.3438ZM500.529 66.3594L505.216 71.3516L503.763 72.7578L499.404 68.0938C498.06 69.9062 496.333 71.5859 494.224 73.1328L492.818 71.7031C496.927 68.625 499.372 65.2734 500.154 61.6484H494.036V59.75H502.685C502.419 62.125 501.701 64.3281 500.529 66.3594ZM508.99 79.2266H506.81V56.8203H508.99V79.2266ZM528.002 61.3203L522.353 76.5312H520.127L525.681 61.5312H518.439V59.5156H528.002V61.3203ZM534.602 74.9141C534.945 74.9141 535.305 74.7734 535.68 74.4922C536.055 74.2109 536.359 73.75 536.594 73.1094C536.844 72.4688 537.031 71.6953 537.156 70.7891C537.281 69.8672 537.344 68.9141 537.344 67.9297C537.344 66.9297 537.273 65.9766 537.133 65.0703C537.008 64.1641 536.828 63.3828 536.594 62.7266C536.359 62.0703 536.055 61.6094 535.68 61.3438C535.305 61.0781 534.945 60.9453 534.602 60.9453C534.242 60.9453 533.875 61.0781 533.5 61.3438C533.141 61.6094 532.844 62.0703 532.609 62.7266C532.375 63.3828 532.188 64.1641 532.047 65.0703C531.922 65.9766 531.859 66.9297 531.859 67.9297C531.859 68.9141 531.922 69.8672 532.047 70.7891C532.172 71.6953 532.352 72.4688 532.586 73.1094C532.836 73.75 533.141 74.2109 533.5 74.4922C533.875 74.7734 534.242 74.9141 534.602 74.9141ZM534.602 76.7422C533.93 76.7422 533.258 76.5547 532.586 76.1797C531.914 75.7891 531.367 75.1875 530.945 74.375C530.523 73.5625 530.203 72.5938 529.984 71.4688C529.781 70.3281 529.68 69.1484 529.68 67.9297C529.68 66.7109 529.781 65.5312 529.984 64.3906C530.203 63.25 530.523 62.2734 530.945 61.4609C531.383 60.6484 531.93 60.0547 532.586 59.6797C533.258 59.2891 533.93 59.0938 534.602 59.0938C535.273 59.0938 535.938 59.2891 536.594 59.6797C537.266 60.0547 537.82 60.6484 538.258 61.4609C538.68 62.2734 538.992 63.25 539.195 64.3906C539.414 65.5312 539.523 66.7109 539.523 67.9297C539.523 69.1484 539.414 70.3281 539.195 71.4688C538.992 72.5938 538.68 73.5625 538.258 74.375C537.836 75.1875 537.289 75.7891 536.617 76.1797C535.945 76.5547 535.273 76.7422 534.602 76.7422ZM545.959 74.9141C546.303 74.9141 546.662 74.7734 547.037 74.4922C547.412 74.2109 547.717 73.75 547.951 73.1094C548.201 72.4688 548.389 71.6953 548.514 70.7891C548.639 69.8672 548.701 68.9141 548.701 67.9297C548.701 66.9297 548.631 65.9766 548.49 65.0703C548.365 64.1641 548.186 63.3828 547.951 62.7266C547.717 62.0703 547.412 61.6094 547.037 61.3438C546.662 61.0781 546.303 60.9453 545.959 60.9453C545.6 60.9453 545.233 61.0781 544.858 61.3438C544.498 61.6094 544.201 62.0703 543.967 62.7266C543.733 63.3828 543.545 64.1641 543.404 65.0703C543.279 65.9766 543.217 66.9297 543.217 67.9297C543.217 68.9141 543.279 69.8672 543.404 70.7891C543.529 71.6953 543.709 72.4688 543.944 73.1094C544.194 73.75 544.498 74.2109 544.858 74.4922C545.233 74.7734 545.6 74.9141 545.959 74.9141ZM545.959 76.7422C545.287 76.7422 544.615 76.5547 543.944 76.1797C543.272 75.7891 542.725 75.1875 542.303 74.375C541.881 73.5625 541.561 72.5938 541.342 71.4688C541.139 70.3281 541.037 69.1484 541.037 67.9297C541.037 66.7109 541.139 65.5312 541.342 64.3906C541.561 63.25 541.881 62.2734 542.303 61.4609C542.74 60.6484 543.287 60.0547 543.944 59.6797C544.615 59.2891 545.287 59.0938 545.959 59.0938C546.631 59.0938 547.295 59.2891 547.951 59.6797C548.623 60.0547 549.178 60.6484 549.615 61.4609C550.037 62.2734 550.35 63.25 550.553 64.3906C550.772 65.5312 550.881 66.7109 550.881 67.9297C550.881 69.1484 550.772 70.3281 550.553 71.4688C550.35 72.5938 550.037 73.5625 549.615 74.375C549.194 75.1875 548.647 75.7891 547.975 76.1797C547.303 76.5547 546.631 76.7422 545.959 76.7422ZM558.489 70.25V61.6484H554.903V70.25H558.489ZM560.575 59.7266V72.1719H552.793V59.7266H560.575ZM564.77 64.9766H566.95V56.8203H569.059V79.2266H566.95V66.875H564.77V77.7266H562.684V57.3125H564.77V64.9766ZM588.095 59.7734C587.782 65.4922 584.915 70 579.493 73.2969L578.11 71.8438C582.626 69.0625 585.141 65.6797 585.657 61.6953H579.095V59.7734H588.095ZM593.977 79.2266H591.798V56.8203H593.977V79.2266ZM609.718 58.8828C609.202 60.1484 608.374 61.3047 607.233 62.3516L612.413 65.3516L611.288 67.0156L605.569 63.6641C605.491 63.7109 605.421 63.75 605.358 63.7812C603.218 65.2188 601.038 66.2812 598.819 66.9688L597.741 65.3516C599.819 64.6484 601.733 63.7188 603.483 62.5625C605.233 61.4062 606.319 60.4375 606.741 59.6562H599.335V57.7344H609.976C609.976 58.0625 609.89 58.4453 609.718 58.8828ZM614.452 70.3438H606.741V74.75H604.585V70.3438H596.007V68.3984H614.452V70.3438ZM611.476 79.3438H599.64V72.6172H601.796V77.4219H611.476V79.3438ZM617.607 70.7188V66.1719C617.607 65.25 617.56 64.375 617.466 63.5469C617.372 62.7031 617.24 61.9375 617.068 61.25C616.88 60.5469 616.661 59.9453 616.411 59.4453C616.161 58.9453 615.818 58.5859 615.38 58.3672V56.9609C616.568 57.2734 617.427 57.8203 617.958 58.6016C618.505 59.3672 618.911 60.2422 619.177 61.2266C619.427 62.1641 619.591 63.1406 619.669 64.1562C619.747 65.1719 619.786 66.1016 619.786 66.9453V69.9688C619.786 70.7812 619.747 71.6953 619.669 72.7109C619.591 73.7266 619.427 74.7031 619.177 75.6406C618.911 76.625 618.505 77.5 617.958 78.2656C617.427 79.0469 616.568 79.6016 615.38 79.9297V78.5C615.818 78.2812 616.161 77.9219 616.411 77.4219C616.661 76.9219 616.88 76.3281 617.068 75.6406C617.24 74.9375 617.372 74.1719 617.466 73.3438C617.56 72.5 617.607 71.625 617.607 70.7188Z" fill="white"/>
<path d="M151 86.5C151 53.6391 177.639 27 210.5 27H261C266.523 27 271 31.4772 271 37V327H151V86.5Z" fill="#4395FF"/>
<path d="M363 327C363 310.431 376.431 297 393 297H473C478.523 297 483 301.477 483 307V327H363Z" fill="white"/>
<circle cx="211" cy="27" r="11" fill="black"/>
<path d="M422.813 282.991C423.913 283.094 424.888 282.286 424.991 281.187L426.67 263.265C426.773 262.165 425.965 261.19 424.865 261.087C423.766 260.984 422.791 261.792 422.688 262.892L421.195 278.822L405.265 277.33C404.165 277.227 403.19 278.035 403.087 279.135C402.984 280.234 403.792 281.209 404.892 281.312L422.813 282.991ZM213.46 31.2761L421.46 282.276L424.54 279.724L216.54 28.7239L213.46 31.2761Z" fill="black"/>
<line x1="-1.31134e-07" y1="328.5" x2="635" y2="328.5" stroke="black" stroke-width="3"/>
<circle cx="317.5" cy="171.5" r="78.5" fill="white" fill-opacity="0.9"/>
<path d="M290.653 172.133H278.465V168.773H290.653V172.133ZM308.488 161.781C308.749 162.641 308.97 163.878 309.153 165.492C309.335 167.107 309.426 169.099 309.426 171.469C309.426 173.135 309.309 174.763 309.074 176.352C308.866 177.94 308.488 179.411 307.942 180.766C307.317 182.198 306.444 183.344 305.324 184.203C304.205 185.062 302.772 185.492 301.028 185.492C299.83 185.492 298.749 185.31 297.785 184.945C296.848 184.555 296.067 184.047 295.442 183.422C294.843 182.823 294.387 182.107 294.074 181.273C293.762 180.414 293.606 179.555 293.606 178.695H297.629C297.629 179.138 297.681 179.62 297.785 180.141C297.916 180.661 298.111 181.091 298.371 181.43C298.632 181.768 298.996 182.055 299.465 182.289C299.934 182.523 300.481 182.641 301.106 182.641C301.939 182.641 302.681 182.328 303.332 181.703C303.983 181.078 304.478 180.284 304.817 179.32C305.181 178.331 305.442 177.289 305.598 176.195C305.78 175.102 305.871 174.203 305.871 173.5V172.25C305.481 172.797 304.973 173.253 304.348 173.617C303.306 174.242 302.225 174.555 301.106 174.555C299.751 174.555 298.606 174.359 297.668 173.969C296.731 173.552 295.897 172.927 295.168 172.094C294.517 171.312 294.009 170.323 293.645 169.125C293.306 167.901 293.137 166.651 293.137 165.375C293.137 164.125 293.319 162.914 293.684 161.742C294.048 160.544 294.556 159.542 295.207 158.734C295.962 157.875 296.874 157.263 297.942 156.898C299.009 156.508 300.064 156.312 301.106 156.312C302.121 156.312 303.163 156.521 304.231 156.938C305.324 157.328 306.223 157.94 306.926 158.773C307.577 159.607 308.098 160.609 308.488 161.781ZM296.692 165.414C296.692 166.273 296.796 167.094 297.004 167.875C297.238 168.656 297.538 169.333 297.903 169.906C298.293 170.453 298.762 170.883 299.309 171.195C299.882 171.482 300.468 171.625 301.067 171.625C301.639 171.625 302.199 171.482 302.746 171.195C303.319 170.883 303.814 170.453 304.231 169.906C304.595 169.333 304.882 168.656 305.09 167.875C305.298 167.094 305.403 166.273 305.403 165.414C305.403 164.555 305.298 163.734 305.09 162.953C304.882 162.172 304.595 161.508 304.231 160.961C303.814 160.388 303.319 159.958 302.746 159.672C302.199 159.385 301.639 159.242 301.067 159.242C300.468 159.242 299.882 159.385 299.309 159.672C298.762 159.958 298.293 160.388 297.903 160.961C297.538 161.508 297.238 162.172 297.004 162.953C296.796 163.734 296.692 164.555 296.692 165.414ZM327.418 161.781C327.678 162.641 327.9 163.878 328.082 165.492C328.264 167.107 328.355 169.099 328.355 171.469C328.355 173.135 328.238 174.763 328.004 176.352C327.795 177.94 327.418 179.411 326.871 180.766C326.246 182.198 325.374 183.344 324.254 184.203C323.134 185.062 321.702 185.492 319.957 185.492C318.759 185.492 317.678 185.31 316.715 184.945C315.777 184.555 314.996 184.047 314.371 183.422C313.772 182.823 313.316 182.107 313.004 181.273C312.691 180.414 312.535 179.555 312.535 178.695H316.558C316.558 179.138 316.611 179.62 316.715 180.141C316.845 180.661 317.04 181.091 317.301 181.43C317.561 181.768 317.926 182.055 318.394 182.289C318.863 182.523 319.41 182.641 320.035 182.641C320.868 182.641 321.611 182.328 322.262 181.703C322.913 181.078 323.407 180.284 323.746 179.32C324.111 178.331 324.371 177.289 324.527 176.195C324.709 175.102 324.801 174.203 324.801 173.5V172.25C324.41 172.797 323.902 173.253 323.277 173.617C322.236 174.242 321.155 174.555 320.035 174.555C318.681 174.555 317.535 174.359 316.597 173.969C315.66 173.552 314.827 172.927 314.097 172.094C313.446 171.312 312.939 170.323 312.574 169.125C312.236 167.901 312.066 166.651 312.066 165.375C312.066 164.125 312.249 162.914 312.613 161.742C312.978 160.544 313.486 159.542 314.137 158.734C314.892 157.875 315.803 157.263 316.871 156.898C317.939 156.508 318.993 156.312 320.035 156.312C321.051 156.312 322.092 156.521 323.16 156.938C324.254 157.328 325.152 157.94 325.855 158.773C326.506 159.607 327.027 160.609 327.418 161.781ZM315.621 165.414C315.621 166.273 315.725 167.094 315.933 167.875C316.168 168.656 316.467 169.333 316.832 169.906C317.222 170.453 317.691 170.883 318.238 171.195C318.811 171.482 319.397 171.625 319.996 171.625C320.569 171.625 321.129 171.482 321.676 171.195C322.249 170.883 322.743 170.453 323.16 169.906C323.525 169.333 323.811 168.656 324.019 167.875C324.228 167.094 324.332 166.273 324.332 165.414C324.332 164.555 324.228 163.734 324.019 162.953C323.811 162.172 323.525 161.508 323.16 160.961C322.743 160.388 322.249 159.958 321.676 159.672C321.129 159.385 320.569 159.242 319.996 159.242C319.397 159.242 318.811 159.385 318.238 159.672C317.691 159.958 317.222 160.388 316.832 160.961C316.467 161.508 316.168 162.172 315.933 162.953C315.725 163.734 315.621 164.555 315.621 165.414ZM351.621 157.562L340.996 184.359H337.675L348.3 157.562H351.621ZM339.355 165.883C339.355 164.138 339.082 162.758 338.535 161.742C337.988 160.727 337.298 160.219 336.464 160.219C335.709 160.219 335.058 160.727 334.511 161.742C333.964 162.758 333.691 164.138 333.691 165.883C333.691 167.576 333.951 168.93 334.472 169.945C335.019 170.935 335.683 171.43 336.464 171.43C337.298 171.43 337.988 170.935 338.535 169.945C339.082 168.93 339.355 167.576 339.355 165.883ZM342.792 165.883C342.792 167.003 342.636 168.096 342.324 169.164C342.037 170.206 341.608 171.117 341.035 171.898C340.488 172.654 339.811 173.214 339.003 173.578C338.196 173.917 337.35 174.086 336.464 174.086C335.631 174.086 334.811 173.917 334.003 173.578C333.196 173.214 332.519 172.654 331.972 171.898C331.399 171.117 330.97 170.206 330.683 169.164C330.397 168.096 330.253 167.003 330.253 165.883C330.253 164.711 330.397 163.604 330.683 162.562C330.97 161.495 331.399 160.583 331.972 159.828C332.519 159.073 333.196 158.513 334.003 158.148C334.811 157.758 335.631 157.562 336.464 157.562C337.35 157.562 338.196 157.758 339.003 158.148C339.811 158.513 340.488 159.073 341.035 159.828C341.608 160.583 342.037 161.495 342.324 162.562C342.636 163.604 342.792 164.711 342.792 165.883ZM355.722 176.117C355.722 174.372 355.449 172.992 354.902 171.977C354.355 170.961 353.665 170.453 352.832 170.453C352.05 170.453 351.386 170.961 350.839 171.977C350.292 172.992 350.019 174.372 350.019 176.117C350.019 177.81 350.279 179.164 350.8 180.18C351.347 181.169 352.024 181.664 352.832 181.664C353.665 181.664 354.355 181.169 354.902 180.18C355.449 179.164 355.722 177.81 355.722 176.117ZM359.16 176.117C359.16 177.237 359.003 178.331 358.691 179.398C358.378 180.466 357.949 181.378 357.402 182.133C356.829 182.888 356.139 183.448 355.332 183.812C354.55 184.177 353.717 184.359 352.832 184.359C351.972 184.359 351.139 184.177 350.332 183.812C349.55 183.448 348.873 182.888 348.3 182.133C347.753 181.378 347.324 180.466 347.011 179.398C346.725 178.331 346.582 177.237 346.582 176.117C346.582 174.971 346.725 173.865 347.011 172.797C347.324 171.729 347.753 170.818 348.3 170.062C348.873 169.307 349.55 168.747 350.332 168.383C351.139 167.992 351.972 167.797 352.832 167.797C353.717 167.797 354.55 167.992 355.332 168.383C356.139 168.747 356.829 169.307 357.402 170.062C357.949 170.818 358.378 171.729 358.691 172.797C359.003 173.865 359.16 174.971 359.16 176.117Z" fill="#0168EE"/>
</svg>
