<svg width="668" height="351" viewBox="0 0 668 351" fill="none" xmlns="http://www.w3.org/2000/svg">
<circle cx="139.5" cy="139.5" r="139.5" fill="#0168EE"/>
<circle cx="573.5" cy="139.5" r="94.5" fill="white"/>
<path d="M118.981 126.069H112.301C110.192 126.069 108.304 125.548 106.637 124.506L107.653 121.811C109.788 122.514 111.507 122.865 112.809 122.865H118.981V126.069ZM122.965 131.342H116.168C113.434 131.342 111.533 131.915 110.465 133.061C109.371 134.233 108.825 135.483 108.825 136.811C108.825 138.139 109.228 139.207 110.035 140.014C110.869 140.821 111.819 141.225 112.887 141.225C114.007 141.225 114.983 140.834 115.817 140.053C116.65 139.246 117.067 138.165 117.067 136.811C117.067 136.576 116.989 136.199 116.832 135.678C116.702 135.157 116.338 134.597 115.739 133.998L118.356 132.123C119.189 132.852 119.775 133.621 120.114 134.428C120.478 135.235 120.66 136.017 120.66 136.772C120.66 139.011 119.892 140.847 118.356 142.28C116.845 143.712 115.022 144.428 112.887 144.428C110.7 144.428 108.877 143.699 107.418 142.24C105.96 140.756 105.231 138.933 105.231 136.772C105.231 135.157 105.895 133.608 107.223 132.123C107.483 131.837 107.783 131.576 108.121 131.342H103.043V128.295H122.965V131.342ZM134.293 135.834H128.59V148.569H124.996V120.444H128.59V132.436H134.293V135.834ZM129.293 157.983H110.895V147.045H114.489V154.78H129.293V157.983ZM164.73 138.647H147.582V122.826H162.308V126.03H151.215V135.444H164.73V138.647ZM177.269 132.397H171.566V140.326H167.972V120.444H171.566V128.998H177.269V132.397ZM172.465 158.373H153.988V148.412H167.972V145.287H153.832V142.084H171.566V151.576H157.582V155.17H172.465V158.373Z" fill="white"/>
<path d="M540.524 141.576H523.376V123.569H538.102V126.772H527.008V138.373H540.524V141.576ZM553.063 133.803H547.36V147.592H543.766V120.444H547.36V130.405H553.063V133.803ZM548.063 157.983H529.274V145.522H532.868V154.78H548.063V157.983ZM582.016 144.545C582.016 145.743 581.82 146.902 581.43 148.022C581.039 149.115 580.492 150.079 579.789 150.912C579.112 151.72 578.214 152.371 577.094 152.865C575.974 153.334 574.75 153.569 573.422 153.569C572.016 153.569 570.831 153.386 569.867 153.022C568.904 152.631 568.109 152.11 567.484 151.459C566.964 150.834 566.573 150.157 566.312 149.428C566.052 148.699 565.922 147.905 565.922 147.045H569.75C569.776 147.514 569.854 147.983 569.984 148.451C570.115 148.894 570.31 149.259 570.57 149.545C570.831 149.832 571.195 150.092 571.664 150.326C572.133 150.561 572.719 150.678 573.422 150.678C574.724 150.678 575.844 150.144 576.781 149.076C577.745 147.983 578.279 146.472 578.383 144.545C578.383 142.618 577.927 141.147 577.016 140.131C576.13 139.115 575.036 138.608 573.734 138.608C572.953 138.608 572.224 138.816 571.547 139.233C570.896 139.649 570.401 140.235 570.062 140.99H566.625L567.367 124.78H580.531V128.061H570.648L570.141 136.889C571.156 136.108 572.484 135.717 574.125 135.717C576.755 135.717 578.721 136.537 580.023 138.178C581.352 139.819 582.016 141.941 582.016 144.545ZM604.5 135.483C603.979 136.082 603.419 136.642 602.82 137.162L611.609 142.084L609.578 144.74L600.125 139.272C599.317 139.819 598.445 140.352 597.507 140.873C594.565 142.488 591.44 143.764 588.132 144.701L586.375 141.967C589.552 141.134 592.716 139.78 595.867 137.905C599.044 136.003 601.166 134.246 602.234 132.631H588.992V129.467H607.742C607.221 131.628 606.14 133.634 604.5 135.483ZM604.851 126.772H596.882C594.981 126.772 593.054 126.251 591.101 125.209L592.078 122.436C594.135 123.165 595.971 123.53 597.586 123.53H604.851V126.772ZM601.023 143.061V149.74H614.5V152.983H583.757V149.74H597.429V143.061H601.023ZM622.14 122.709L621.867 144.819H618.585L618.351 122.709H622.14ZM622.57 154.584H617.999V149.819H622.57V154.584Z" fill="#0168EE"/>
<circle cx="231" cy="140" r="11" fill="black"/>
<path d="M464.414 141.414C465.195 140.633 465.195 139.367 464.414 138.586L451.686 125.858C450.905 125.077 449.639 125.077 448.858 125.858C448.077 126.639 448.077 127.905 448.858 128.686L460.172 140L448.858 151.314C448.077 152.095 448.077 153.361 448.858 154.142C449.639 154.923 450.905 154.923 451.686 154.142L464.414 141.414ZM231 142L463 142L463 138L231 138L231 142Z" fill="black"/>
<path d="M101.413 314.686C101.413 314.139 101.315 313.621 101.12 313.133C100.944 312.645 100.68 312.215 100.329 311.844C99.9966 311.512 99.5864 311.258 99.0981 311.082C98.6098 310.887 98.1118 310.789 97.604 310.789C97.0962 310.789 96.5981 310.887 96.1098 311.082C95.6216 311.258 95.2114 311.512 94.8794 311.844C94.5278 312.215 94.2544 312.645 94.0591 313.133C93.8833 313.621 93.7954 314.139 93.7954 314.686C93.7954 315.213 93.8833 315.73 94.0591 316.238C94.2544 316.727 94.5278 317.146 94.8794 317.498C95.2114 317.83 95.6216 318.094 96.1098 318.289C96.5981 318.484 97.0962 318.582 97.604 318.582C98.1118 318.582 98.6098 318.484 99.0981 318.289C99.5864 318.094 99.9966 317.83 100.329 317.498C100.68 317.146 100.944 316.727 101.12 316.238C101.315 315.73 101.413 315.213 101.413 314.686ZM104.137 314.686C104.137 315.545 103.971 316.365 103.639 317.146C103.307 317.908 102.858 318.572 102.291 319.139C101.686 319.725 100.973 320.174 100.153 320.486C99.3325 320.799 98.4829 320.955 97.604 320.955C96.7251 320.955 95.8755 320.799 95.0552 320.486C94.2348 320.174 93.522 319.725 92.9165 319.139C92.3501 318.572 91.9009 317.908 91.5688 317.146C91.2368 316.365 91.0708 315.545 91.0708 314.686C91.0708 313.826 91.2368 313.016 91.5688 312.254C91.9009 311.473 92.3501 310.789 92.9165 310.203C93.522 309.617 94.2348 309.178 95.0552 308.885C95.8755 308.572 96.7251 308.416 97.604 308.416C98.4829 308.416 99.3325 308.572 100.153 308.885C100.973 309.178 101.686 309.617 102.291 310.203C102.858 310.789 103.307 311.473 103.639 312.254C103.971 313.016 104.137 313.826 104.137 314.686ZM108.092 321.629V306.775H110.817V321.629H108.092ZM111.403 335.223H97.5454V327.752H108.004V325.408H97.4282V323.006H110.7V330.125H100.241V332.82H111.403V335.223ZM126.039 323.094H114.496V308.885H117.133V313.543H123.373V308.885H126.039V323.094ZM123.373 320.721V315.916H117.133V320.721H123.373ZM136.762 317.117H132.485V327.371H129.789V306.775H132.485V314.568H136.762V317.117ZM133.012 334.93H118.92V326.053H121.615V332.527H133.012V334.93ZM158.359 323.094H146.728V308.885H149.365V313.543H155.722V308.885H158.359V314.393H162.988V306.775H165.713V327.371H162.988V316.795H158.359V323.094ZM155.722 320.721V315.916H149.365V320.721H155.722ZM166.123 334.93H152.031V326.053H154.726V332.527H166.123V334.93ZM178.914 315.301C178.914 314.734 178.816 314.188 178.621 313.66C178.445 313.133 178.181 312.684 177.83 312.312C177.478 311.922 177.068 311.629 176.599 311.434C176.13 311.238 175.642 311.141 175.134 311.141C174.626 311.141 174.138 311.238 173.669 311.434C173.201 311.629 172.791 311.922 172.439 312.312C172.087 312.684 171.814 313.133 171.619 313.66C171.443 314.188 171.355 314.734 171.355 315.301C171.355 315.887 171.443 316.443 171.619 316.971C171.814 317.479 172.087 317.928 172.439 318.318C172.791 318.689 173.201 318.982 173.669 319.197C174.138 319.393 174.626 319.49 175.134 319.49C175.642 319.49 176.13 319.393 176.599 319.197C177.068 318.982 177.478 318.689 177.83 318.318C178.181 317.928 178.445 317.479 178.621 316.971C178.816 316.443 178.914 315.887 178.914 315.301ZM181.638 315.301C181.638 315.984 181.55 316.648 181.375 317.293H185.681V313.104H181.287C181.521 313.807 181.638 314.539 181.638 315.301ZM180.056 319.695C179.978 319.793 179.89 319.881 179.792 319.959C179.207 320.564 178.503 321.033 177.683 321.365C176.882 321.678 176.033 321.834 175.134 321.834C174.236 321.834 173.376 321.678 172.556 321.365C171.755 321.033 171.062 320.564 170.476 319.959C169.89 319.373 169.431 318.67 169.099 317.85C168.787 317.029 168.63 316.18 168.63 315.301C168.63 314.422 168.787 313.572 169.099 312.752C169.431 311.932 169.89 311.238 170.476 310.672C171.062 310.066 171.755 309.598 172.556 309.266C173.376 308.934 174.236 308.768 175.134 308.768C176.033 308.768 176.882 308.934 177.683 309.266C178.503 309.598 179.207 310.066 179.792 310.672L179.851 310.73H185.681V306.775H188.376V323.65H185.681V319.695H180.056ZM188.259 335.516H185.564V327.371H173.787V324.969H188.259V335.516Z" fill="white"/>
<path d="M528.86 331.18H526.048L524.055 324.617H517.259L515.296 331.18H512.454L519.28 309.793H522.063L528.86 331.18ZM523.323 322.186L520.686 313.396L518.02 322.186H523.323ZM533.418 331.18H530.723V309.793H533.418V331.18ZM556.686 310.467C556.295 317.615 552.711 323.25 545.934 327.371L544.205 325.555C549.85 322.078 552.994 317.85 553.639 312.869H545.436V310.467H556.686ZM564.039 334.783H561.314V306.775H564.039V334.783ZM578.148 310.467C578.051 311.912 577.845 313.289 577.533 314.598H580.375V307.391H582.982V332.908H580.375V323.357H576.595V320.984H580.375V316.971H576.888C575.404 321.248 572.679 324.764 568.715 327.518L566.898 325.789C571.664 322.332 574.418 318.025 575.16 312.869H568.099V310.467H578.148ZM588.051 334.783H585.414V306.775H588.051V334.783ZM603.361 323.094H591.73V308.885H594.367V313.543H600.724V308.885H603.361V314.393H607.99V306.775H610.714V327.371H607.99V316.795H603.361V323.094ZM600.724 320.721V315.916H594.367V320.721H600.724ZM611.125 334.93H597.033V326.053H599.728V332.527H611.125V334.93ZM623.915 315.301C623.915 314.734 623.818 314.188 623.622 313.66C623.447 313.133 623.183 312.684 622.831 312.312C622.48 311.922 622.07 311.629 621.601 311.434C621.132 311.238 620.644 311.141 620.136 311.141C619.628 311.141 619.14 311.238 618.671 311.434C618.202 311.629 617.792 311.922 617.441 312.312C617.089 312.684 616.816 313.133 616.62 313.66C616.445 314.188 616.357 314.734 616.357 315.301C616.357 315.887 616.445 316.443 616.62 316.971C616.816 317.479 617.089 317.928 617.441 318.318C617.792 318.689 618.202 318.982 618.671 319.197C619.14 319.393 619.628 319.49 620.136 319.49C620.644 319.49 621.132 319.393 621.601 319.197C622.07 318.982 622.48 318.689 622.831 318.318C623.183 317.928 623.447 317.479 623.622 316.971C623.818 316.443 623.915 315.887 623.915 315.301ZM626.64 315.301C626.64 315.984 626.552 316.648 626.376 317.293H630.683V313.104H626.288C626.523 313.807 626.64 314.539 626.64 315.301ZM625.058 319.695C624.98 319.793 624.892 319.881 624.794 319.959C624.208 320.564 623.505 321.033 622.685 321.365C621.884 321.678 621.034 321.834 620.136 321.834C619.238 321.834 618.378 321.678 617.558 321.365C616.757 321.033 616.064 320.564 615.478 319.959C614.892 319.373 614.433 318.67 614.101 317.85C613.788 317.029 613.632 316.18 613.632 315.301C613.632 314.422 613.788 313.572 614.101 312.752C614.433 311.932 614.892 311.238 615.478 310.672C616.064 310.066 616.757 309.598 617.558 309.266C618.378 308.934 619.238 308.768 620.136 308.768C621.034 308.768 621.884 308.934 622.685 309.266C623.505 309.598 624.208 310.066 624.794 310.672L624.853 310.73H630.683V306.775H633.378V323.65H630.683V319.695H625.058ZM633.261 335.516H630.566V327.371H618.788V324.969H633.261V335.516Z" fill="white"/>
</svg>
