<svg width="78" height="16" viewBox="0 0 78 16" fill="none" xmlns="http://www.w3.org/2000/svg">
<path d="M7.89098 1.16911C8.05808 0.748665 8.65317 0.748666 8.82027 1.16911L10.2633 4.79984C10.3333 4.97611 10.4971 5.09756 10.6861 5.11342L14.471 5.43096C14.9079 5.46762 15.0894 6.00885 14.7629 6.30152L11.8464 8.916C11.7112 9.03725 11.6523 9.22232 11.6927 9.39942L12.5778 13.2827C12.6772 13.7188 12.1979 14.056 11.821 13.8151L8.62492 11.7721C8.46073 11.6672 8.25052 11.6672 8.08634 11.7721L4.89024 13.8151C4.51339 14.056 4.03406 13.7188 4.13345 13.2827L5.01858 9.39942C5.05895 9.22232 5.00009 9.03725 4.86484 8.916L1.94835 6.30152C1.62187 6.00885 1.80337 5.46762 2.2403 5.43096L6.02514 5.11342C6.21416 5.09756 6.37793 4.97611 6.44799 4.79984L7.89098 1.16911Z" fill="#4395FF"/>
<path d="M23.18 1.16911C23.3471 0.748665 23.9422 0.748666 24.1093 1.16911L25.5523 4.79984C25.6224 4.97611 25.7862 5.09756 25.9752 5.11342L29.76 5.43096C30.1969 5.46762 30.3784 6.00885 30.052 6.30152L27.1355 8.916C27.0002 9.03725 26.9414 9.22232 26.9817 9.39942L27.8669 13.2827C27.9663 13.7188 27.4869 14.056 27.1101 13.8151L23.914 11.7721C23.7498 11.6672 23.5396 11.6672 23.3754 11.7721L20.1793 13.8151C19.8025 14.056 19.3231 13.7188 19.4225 13.2827L20.3076 9.39942C20.348 9.22232 20.2892 9.03725 20.1539 8.916L17.2374 6.30152C16.9109 6.00885 17.0924 5.46762 17.5294 5.43096L21.3142 5.11342C21.5032 5.09756 21.667 4.97611 21.737 4.79984L23.18 1.16911Z" fill="#4395FF"/>
<path d="M38.4689 1.16911C38.636 0.748665 39.2311 0.748666 39.3982 1.16911L40.8411 4.79984C40.9112 4.97611 41.075 5.09756 41.264 5.11342L45.0488 5.43096C45.4858 5.46762 45.6673 6.00885 45.3408 6.30152L42.4243 8.916C42.289 9.03725 42.2302 9.22232 42.2705 9.39942L43.1557 13.2827C43.2551 13.7188 42.7757 14.056 42.3989 13.8151L39.2028 11.7721C39.0386 11.6672 38.8284 11.6672 38.6642 11.7721L35.4681 13.8151C35.0913 14.056 34.6119 13.7188 34.7113 13.2827L35.5965 9.39942C35.6368 9.22232 35.578 9.03725 35.4427 8.916L32.5262 6.30152C32.1997 6.00885 32.3813 5.46762 32.8182 5.43096L36.603 5.11342C36.792 5.09756 36.9558 4.97611 37.0259 4.79984L38.4689 1.16911Z" fill="#4395FF"/>
<path d="M53.7582 1.16911C53.9253 0.748665 54.5204 0.748666 54.6875 1.16911L56.1305 4.79984C56.2005 4.97611 56.3643 5.09756 56.5533 5.11342L60.3381 5.43096C60.7751 5.46762 60.9566 6.00885 60.6301 6.30152L57.7136 8.916C57.5783 9.03725 57.5195 9.22232 57.5599 9.39942L58.445 13.2827C58.5444 13.7188 58.065 14.056 57.6882 13.8151L54.4921 11.7721C54.3279 11.6672 54.1177 11.6672 53.9535 11.7721L50.7574 13.8151C50.3806 14.056 49.9012 13.7188 50.0006 13.2827L50.8858 9.39942C50.9261 9.22232 50.8673 9.03725 50.732 8.916L47.8155 6.30152C47.4891 6.00885 47.6706 5.46762 48.1075 5.43096L51.8923 5.11342C52.0813 5.09756 52.2451 4.97611 52.3152 4.79984L53.7582 1.16911Z" fill="#4395FF"/>
<path d="M68.0689 4.98451L67.6042 4.79984L68.0689 4.98451L69.5119 1.35378L70.9549 4.98451C71.095 5.33705 71.4225 5.57995 71.8006 5.61167L75.5854 5.92921L72.6689 8.5437C72.3984 8.7862 72.2807 9.15633 72.3614 9.51054L73.2466 13.3938L70.0505 11.3508C69.7221 11.1409 69.3017 11.1409 68.9733 11.3508L69.2426 11.7721L68.9733 11.3508L65.7772 13.3938L66.6623 9.51054C66.7431 9.15633 66.6254 8.7862 66.3548 8.5437L63.4383 5.92921L67.2232 5.61167C67.6012 5.57995 67.9288 5.33705 68.0689 4.98451Z" stroke="#4395FF"/>
</svg>
